<svg width="97" height="105" viewBox="0 0 97 105" fill="none" xmlns="http://www.w3.org/2000/svg">
<path d="M95.8435 19.0518H1.15649V90.532H95.8435V19.0518Z" fill="#A3A3A3"/>
<path d="M10.1191 27.9331V81.5075H86.8807V72.6261V27.9331H10.1191Z" fill="#D8FFAB"/>
<path d="M11.2758 97.2646C13.1551 97.2646 14.6007 98.6971 14.6007 100.559C14.6007 102.422 13.1551 103.854 11.2758 103.854C9.39653 103.854 7.95093 102.422 7.95093 100.559C7.95093 98.6971 9.39653 97.2646 11.2758 97.2646Z" fill="#D7DEED"/>
<path d="M86.8808 1.146C89.3383 1.146 91.3622 3.15145 91.3622 5.58665C91.3622 8.02185 89.3383 10.0273 86.8808 10.0273C84.4233 10.0273 82.3994 8.02185 82.3994 5.58665C82.3994 3.15145 84.2787 1.146 86.8808 1.146Z" fill="#D7DEED"/>
<path d="M33.8271 5.58643C35.7064 5.58643 37.152 7.01889 37.152 8.8811C37.152 10.7433 35.7064 12.1758 33.8271 12.1758C31.9478 12.1758 30.5022 10.7433 30.5022 8.8811C30.5022 7.01889 31.9478 5.58643 33.8271 5.58643Z" fill="#D7DEED"/>
<path d="M75.7496 58.3016L79.9419 60.7368C79.6528 61.5963 79.0745 62.3125 78.4963 62.8855C77.918 63.4585 77.0507 64.0315 76.1833 64.4612C75.316 64.891 74.4486 65.1775 73.4367 65.464C72.4247 65.7505 71.5574 65.7505 70.69 65.7505C69.0999 65.7505 67.6543 65.464 66.3532 64.7477C65.0522 64.1747 63.8957 63.3153 62.8838 62.1693C61.8718 61.1666 61.149 59.8773 60.7154 58.5881C60.1371 57.2989 59.9926 55.8664 59.9926 54.4339C59.9926 53.1447 60.2817 51.8555 60.7154 50.5663C61.149 49.2771 61.8718 48.1311 62.8838 47.1284C63.8957 46.1256 65.0522 45.2661 66.3532 44.6932C67.6543 44.1202 69.2444 43.6904 70.9791 43.6904C73.003 43.6904 74.8823 44.1202 76.3279 44.9797C77.7735 45.8391 78.93 46.9851 79.6528 48.4176L75.7496 51.1393C75.4605 50.5663 75.1714 50.1365 74.7377 49.7068C74.304 49.2771 73.8703 48.9906 73.4367 48.8473C73.003 48.5608 72.5693 48.4176 71.9911 48.4176C71.5574 48.2743 70.9791 48.2743 70.5455 48.2743C69.5335 48.2743 68.6662 48.4176 67.9434 48.8473C67.2206 49.2771 66.6423 49.7068 66.2086 50.2798C65.775 50.8528 65.3413 51.569 65.1967 52.4285C65.0522 53.1447 65.0522 53.861 65.0522 54.7204C65.0522 55.5799 65.1967 56.4394 65.4858 57.1556C65.775 58.0151 66.2086 58.5881 66.6423 59.3043C67.076 59.8773 67.7988 60.4503 68.5216 60.7368C69.2444 61.0233 69.9672 61.3098 70.9791 61.3098C71.4128 61.3098 71.8465 61.3098 72.4247 61.1666C72.8584 61.0233 73.4367 60.8801 73.8703 60.5936C74.304 60.3071 74.7377 60.0206 75.0268 59.7341C75.1714 59.3043 75.4605 58.8746 75.7496 58.3016Z" fill="black"/>
<path d="M64.3293 1.146C65.6304 1.146 66.6423 2.14872 66.6423 3.43795C66.6423 4.72717 65.6304 5.7299 64.3293 5.7299C63.0283 5.7299 62.0164 4.72717 62.0164 3.43795C62.0164 2.14872 63.0283 1.146 64.3293 1.146Z" fill="black"/>
<path d="M56.9568 56.4392C57.6796 57.442 58.1133 58.5879 58.1133 60.0204C58.1133 61.0231 57.9687 61.7394 57.535 62.4556C57.1013 63.1718 56.6677 63.7448 55.9449 64.1746C55.2221 64.6043 54.4992 65.034 53.6319 65.1773C52.7645 65.4638 51.7526 65.4638 50.7407 65.4638H40.0432V43.8335H52.3308C53.0536 43.8335 53.7764 43.9767 54.3547 44.2632C54.9329 44.5497 55.5112 44.9795 55.9449 45.5525C56.3785 46.1254 56.6677 46.6984 56.9568 47.2714C57.2459 47.9877 57.2459 48.5606 57.2459 49.2769C57.2459 50.2796 56.9568 51.2823 56.5231 52.2851C55.9449 53.1445 55.2221 53.8608 54.2101 54.4338C55.2221 54.8635 56.234 55.4365 56.9568 56.4392ZM52.9091 59.0177C52.9091 58.3014 52.7645 57.7284 52.3308 57.2987C51.8972 56.869 51.4635 56.5825 50.8852 56.5825H45.1028V61.3096H50.5961C51.3189 61.3096 51.7526 61.1664 52.1863 60.5934C52.7645 60.3069 52.9091 59.7339 52.9091 59.0177ZM51.4635 52.1418C51.8972 51.7121 52.0417 51.1391 52.0417 50.4229C52.0417 49.7066 51.8972 49.1336 51.4635 48.7039C51.0298 48.2742 50.5961 48.1309 50.0179 48.1309H44.8137V52.5716H49.7288C50.5961 52.5716 51.0298 52.4283 51.4635 52.1418Z" fill="black"/>
<path d="M50.7407 94.9727C52.0417 94.9727 53.0537 95.9754 53.0537 97.2646C53.0537 98.5538 52.0417 99.5565 50.7407 99.5565C49.4397 99.5565 48.4277 98.5538 48.4277 97.2646C48.4277 95.9754 49.4397 94.9727 50.7407 94.9727Z" fill="black"/>
<path d="M29.7794 43.8335L37.7302 65.607H32.5261L30.7913 60.7366H23.997L22.2623 65.607H17.0581L25.0089 43.8335H29.7794V43.8335ZM30.0685 57.2987L27.4665 49.5634L24.8644 57.2987H30.0685Z" fill="black"/>
<path d="M19.2265 70.3345C20.5276 70.3345 21.5395 71.3372 21.5395 72.6264C21.5395 73.9156 20.5276 74.9184 19.2265 74.9184C17.9255 74.9184 16.9136 73.9156 16.9136 72.6264C16.9136 71.3372 17.9255 70.3345 19.2265 70.3345Z" fill="black"/>
<path d="M16.9136 7.87842C18.2146 7.87842 19.2265 8.88115 19.2265 10.1704C19.2265 11.4596 18.2146 12.4623 16.9136 12.4623C15.6125 12.4623 14.6006 11.3163 14.6006 10.0271C14.6006 8.88115 15.6125 7.87842 16.9136 7.87842Z" fill="black"/>
<path d="M95.8435 91.6779H1.15648C0.433681 91.6779 0 91.1049 0 90.532V19.0517C0 18.4787 0.433681 17.9058 1.15648 17.9058H95.8435C96.4218 17.9058 97 18.3355 97 19.0517V90.532C97 91.1049 96.4218 91.6779 95.8435 91.6779ZM2.31297 89.386H94.8316V20.0545H2.31297V89.386V89.386Z" fill="black"/>
<path d="M86.8807 82.6534H10.1191C9.54089 82.6534 8.96265 82.2237 8.96265 81.5074V27.9331C8.96265 27.3601 9.39633 26.7871 10.1191 26.7871H86.7361C87.3144 26.7871 87.8926 27.2168 87.8926 27.9331V81.5074C87.8926 82.2237 87.4589 82.6534 86.8807 82.6534ZM11.2756 80.5047H85.7242V29.0791H11.2756V80.5047Z" fill="black"/>
<path d="M86.8808 73.7719H25.8763C25.2981 73.7719 24.7198 73.3422 24.7198 72.626C24.7198 72.053 25.2981 71.48 25.8763 71.48H86.7362C87.3145 71.48 87.8927 71.9097 87.8927 72.626C87.8927 73.1989 87.459 73.7719 86.8808 73.7719Z" fill="black"/>
<path d="M11.2758 105C8.81828 105 6.79443 102.994 6.79443 100.559C6.79443 98.1241 8.81828 96.1187 11.2758 96.1187C13.7333 96.1187 15.7572 98.1241 15.7572 100.559C15.7572 102.994 13.7333 105 11.2758 105ZM11.2758 98.2674C9.97476 98.2674 8.96284 99.2701 8.96284 100.559C8.96284 101.849 9.97476 102.851 11.2758 102.851C12.5768 102.851 13.5888 101.849 13.5888 100.559C13.5888 99.2701 12.5768 98.2674 11.2758 98.2674Z" fill="black"/>
<path d="M33.8272 13.4653C31.3697 13.4653 29.3458 11.4598 29.3458 9.02464C29.3458 6.58944 31.3697 4.58398 33.8272 4.58398C36.2847 4.58398 38.3086 6.58944 38.3086 9.02464C38.3086 11.4598 36.2847 13.4653 33.8272 13.4653ZM33.8272 6.73269C32.5262 6.73269 31.5142 7.73542 31.5142 9.02464C31.5142 10.3139 32.5262 11.3166 33.8272 11.3166C35.1282 11.3166 36.1402 10.3139 36.1402 9.02464C36.1402 7.73542 35.1282 6.73269 33.8272 6.73269Z" fill="black"/>
<path d="M86.8808 11.1733C83.7004 11.1733 81.2429 8.59481 81.2429 5.58663C81.2429 2.4352 83.845 0 86.8808 0C89.9165 0 92.5186 2.4352 92.5186 5.58663C92.5186 8.73806 89.9165 11.1733 86.8808 11.1733ZM86.8808 2.29195C85.0015 2.29195 83.5559 3.72442 83.5559 5.58663C83.5559 7.44884 85.0015 8.88131 86.8808 8.88131C88.7601 8.88131 90.2057 7.44884 90.2057 5.58663C90.2057 3.72442 88.7601 2.29195 86.8808 2.29195Z" fill="black"/>
</svg>
