<svg width="106" height="107" viewBox="0 0 106 107" fill="none" xmlns="http://www.w3.org/2000/svg">
<path d="M97.9592 77.438C100.561 77.438 102.704 79.5763 102.704 82.1729C102.704 84.7694 100.561 86.9077 97.9592 86.9077C95.3571 86.9077 93.2143 84.7694 93.2143 82.1729C93.0612 79.5763 95.2041 77.438 97.9592 77.438Z" fill="#D7DEED"/>
<path d="M7.19387 96.5303C9.81441 96.5303 11.9388 94.4104 11.9388 91.7954C11.9388 89.1804 9.81441 87.0605 7.19387 87.0605C4.57334 87.0605 2.44897 89.1804 2.44897 91.7954C2.44897 94.4104 4.57334 96.5303 7.19387 96.5303Z" fill="#D7DEED"/>
<path d="M13.1632 1.22168C16.5306 1.22168 19.1326 3.81822 19.1326 7.17845C19.1326 10.5387 16.5306 13.1352 13.1632 13.1352C9.79589 13.1352 7.19385 10.5387 7.19385 7.17845C7.19385 3.81822 9.79589 1.22168 13.1632 1.22168Z" fill="#D7DEED"/>
<path d="M75.6123 18.7869C60.3062 3.5131 35.3572 3.5131 20.0511 18.7869C4.745 34.0607 4.745 58.9569 20.0511 74.2307C35.3572 89.5045 60.3062 89.5045 75.6123 74.2307C90.9185 58.9569 90.9185 34.0607 75.6123 18.7869Z" fill="#D8F2F1"/>
<path d="M102.704 101.265C104.082 101.265 105.153 102.334 105.153 103.709C105.153 105.084 104.082 106.153 102.704 106.153C101.327 106.153 100.255 105.084 100.255 103.709C100.255 102.334 101.327 101.265 102.704 101.265Z" fill="black"/>
<path d="M97.9592 3.5127C99.3368 3.5127 100.408 4.58186 100.408 5.9565C100.408 7.33114 99.3368 8.4003 97.9592 8.4003C96.5817 8.4003 95.5103 7.33114 95.5103 5.9565C95.5103 4.58186 96.5817 3.5127 97.9592 3.5127Z" fill="black"/>
<path d="M71.6326 1.22168C73.0101 1.22168 74.0816 2.29084 74.0816 3.66548C74.0816 5.04012 73.0101 6.10929 71.6326 6.10929C70.255 6.10929 69.1836 5.04012 69.1836 3.66548C69.1836 2.29084 70.255 1.22168 71.6326 1.22168Z" fill="black"/>
<path d="M64.4387 53.6108C65.8163 53.6108 66.8877 54.68 66.8877 56.0546C66.8877 57.4293 65.8163 58.4984 64.4387 58.4984C63.0612 58.4984 61.9897 57.4293 61.9897 56.0546C62.1428 54.68 63.2142 53.6108 64.4387 53.6108Z" fill="black"/>
<path d="M23.8776 29.7837C25.2551 29.7837 26.3265 30.8529 26.3265 32.2275C26.3265 33.6021 25.2551 34.6713 23.8776 34.6713C22.5 34.6713 21.4286 33.6021 21.4286 32.2275C21.4286 30.8529 22.5 29.7837 23.8776 29.7837Z" fill="black"/>
<path d="M2.44898 22.605C3.82653 22.605 4.89796 23.6741 4.89796 25.0488C4.89796 26.4234 3.82653 27.4926 2.44898 27.4926C1.07143 27.4926 0 26.4234 0 25.0488C0 23.6741 1.07143 22.605 2.44898 22.605Z" fill="black"/>
<path d="M2.44898 63.0806C3.82653 63.0806 4.89796 64.1497 4.89796 65.5244C4.89796 66.899 3.82653 67.9682 2.44898 67.9682C1.07143 67.9682 0 66.899 0 65.5244C0 64.1497 1.07143 63.0806 2.44898 63.0806Z" fill="black"/>
<path d="M71.6327 104.778C71.0204 104.778 70.4082 104.32 70.4082 103.556V87.8242C70.4082 87.366 70.5613 87.0605 71.0205 86.7551C74.5409 84.7695 77.7551 82.1729 80.6633 79.4237C98.8776 61.2479 98.8776 31.7695 80.6633 13.7464C80.2041 13.2882 80.2041 12.5245 80.6633 12.0663C81.1225 11.6081 81.8878 11.6081 82.347 12.0663C101.48 31.1585 101.48 62.1643 82.347 81.1038C79.4388 84.0058 76.2245 86.4496 72.8572 88.5879V103.862C72.8572 104.32 72.2449 104.778 71.6327 104.778Z" fill="black"/>
<path d="M59.6938 104.778C59.0816 104.778 58.4694 104.32 58.4694 103.556V94.0865C50.8163 95.7666 42.8571 95.6138 35.2041 93.6283C26.9387 91.4899 19.2857 87.0605 13.1632 80.951C12.7041 80.4928 12.7041 79.7291 13.1632 79.2709C13.6224 78.8127 14.3877 78.8127 14.8469 79.2709C26.4796 90.879 43.4694 95.4611 59.3877 91.3372C59.6938 91.1845 60.153 91.3372 60.4592 91.4899C60.7653 91.6427 60.9183 92.1009 60.9183 92.4064V103.403C60.9183 104.32 60.3061 104.778 59.6938 104.778Z" fill="black"/>
<path d="M95.5102 104.778H45.3062C44.6939 104.778 44.0817 104.32 44.0817 103.556C44.0817 102.945 44.5409 102.334 45.3062 102.334H95.5102C96.1225 102.334 96.7347 102.793 96.7347 103.556C96.7347 104.32 96.1225 104.778 95.5102 104.778Z" fill="black"/>
<path d="M47.755 86.9076C36.8877 86.9076 26.7856 82.6309 19.1326 74.994C3.36727 59.262 3.36727 33.6021 19.1326 17.8701C26.7856 10.2332 36.8877 5.95654 47.755 5.95654C58.6224 5.95654 68.7244 10.2332 76.3775 17.8701C92.1428 33.6021 92.1428 59.262 76.3775 74.994C68.7244 82.6309 58.6224 86.9076 47.755 86.9076ZM47.755 8.40035C37.4999 8.40035 28.0101 12.3715 20.8162 19.5502C5.96931 34.3658 5.96931 58.4983 20.8162 73.3139C28.0101 80.4926 37.653 84.4637 47.755 84.4637C58.0101 84.4637 67.4999 80.4926 74.6938 73.3139C89.5407 58.4983 89.5407 34.3658 74.6938 19.5502C67.4999 12.3715 58.0101 8.40035 47.755 8.40035Z" fill="black"/>
<path d="M76.3775 47.6542H48.9796C47.7551 47.6542 46.5306 47.196 45.6122 46.2795C44.6939 45.3631 44.2347 44.1412 44.2347 42.9193C44.2347 40.3228 46.3775 38.1844 48.9796 38.1844H53.7245C54.3367 38.1844 54.949 37.879 55.4081 37.4207C55.8673 36.9625 56.1735 36.3516 56.1735 35.7406C56.1735 34.366 55.102 33.2968 53.7245 33.2968H31.0714C30.4592 33.2968 29.8469 32.8386 29.8469 32.0749C29.8469 31.464 30.3061 30.853 31.0714 30.853H53.7245C56.3265 30.853 58.4694 32.9914 58.4694 35.5879C58.4694 36.8098 58.0102 38.0317 57.0918 38.9481C56.1735 39.8646 54.949 40.3228 53.7245 40.3228H48.9796C47.602 40.3228 46.5306 41.3919 46.5306 42.7666C46.5306 43.3775 46.8367 43.9885 47.2959 44.4467C47.7551 44.9049 48.3673 45.2104 48.9796 45.2104H76.3775C76.9898 45.2104 77.602 45.8213 77.602 46.4323C77.602 47.196 77.1428 47.6542 76.3775 47.6542Z" fill="black"/>
<path d="M41.7857 71.4813H33.3673C32.7551 71.4813 32.1428 71.0231 32.1428 70.2594C32.1428 69.6485 32.602 69.0375 33.3673 69.0375H41.7857C42.3979 69.0375 43.0102 68.7321 43.4694 68.2738C43.9285 67.8156 44.2347 67.2047 44.2347 66.5937C44.2347 65.2191 43.1632 64.1499 41.7857 64.1499H39.3367C38.1122 64.1499 36.8877 63.6917 35.9694 62.7753C35.051 61.8589 34.5918 60.637 34.5918 59.4151C34.5918 56.8185 36.7347 54.6802 39.3367 54.6802H57.2449C57.8571 54.6802 58.4694 55.1384 58.4694 55.9021C58.4694 56.513 58.0102 57.124 57.2449 57.124H39.3367C37.9592 57.124 36.8877 58.1931 36.8877 59.5678C36.8877 60.1787 37.1938 60.7897 37.653 61.2479C38.1122 61.7061 38.7245 62.0116 39.3367 62.0116H41.7857C44.3877 62.0116 46.5306 64.1499 46.5306 66.7465C46.5306 67.9684 46.0714 69.1903 45.153 70.1067C44.2347 71.0231 43.0102 71.4813 41.7857 71.4813Z" fill="black"/>
<path d="M7.194 97.7524C3.82665 97.7524 1.22461 95.1559 1.22461 91.7956C1.22461 88.4354 3.97971 85.8389 7.194 85.8389C10.5613 85.8389 13.1634 88.5881 13.1634 91.7956C13.1634 95.0031 10.4083 97.7524 7.194 97.7524ZM7.194 88.1299C5.2042 88.1299 3.67359 89.6573 3.67359 91.6429C3.67359 93.6285 5.2042 95.1559 7.194 95.1559C9.18379 95.1559 10.7144 93.6285 10.7144 91.6429C10.7144 89.81 9.18379 88.1299 7.194 88.1299Z" fill="black"/>
<path d="M97.9591 88.1299C94.5918 88.1299 91.9897 85.3806 91.9897 82.1731C91.9897 78.8128 94.5918 76.2163 97.9591 76.2163C101.326 76.2163 103.929 78.8128 103.929 82.1731C103.929 85.5333 101.173 88.1299 97.9591 88.1299ZM97.9591 78.6601C95.9693 78.6601 94.4387 80.1875 94.4387 82.1731C94.4387 84.1587 95.9693 85.686 97.9591 85.686C99.9489 85.686 101.48 84.0059 101.48 82.1731C101.48 80.1875 99.9489 78.6601 97.9591 78.6601Z" fill="black"/>
<path d="M13.1634 14.3573C9.18377 14.3573 5.96948 11.1499 5.96948 7.17867C5.96948 3.20749 9.18377 0 13.1634 0C17.143 0 20.3572 3.20749 20.3572 7.17867C20.3572 11.1499 17.143 14.3573 13.1634 14.3573ZM13.1634 2.4438C10.5613 2.4438 8.41846 4.58213 8.41846 7.17867C8.41846 9.77522 10.5613 11.9135 13.1634 11.9135C15.7654 11.9135 17.9083 9.77522 17.9083 7.17867C17.9083 4.58213 15.7654 2.4438 13.1634 2.4438Z" fill="black"/>
</svg>
