<svg width="104" height="100" viewBox="0 0 104 100" fill="none" xmlns="http://www.w3.org/2000/svg">
<path d="M71.9346 16.6667V1.13965H21.2825C18.7286 1.13965 16.6003 3.2764 16.6003 5.8405V90.0285V94.302C16.6003 96.8661 18.7286 99.0029 21.2825 99.0029H82.8595C85.4134 99.0029 87.5417 96.8661 87.5417 94.302V16.6667H71.9346Z" fill="#ECF0F1"/>
<path d="M99.6017 32.1938C101.446 32.1938 102.865 33.6183 102.865 35.4702C102.865 37.3221 101.446 38.7466 99.6017 38.7466C97.7572 38.7466 96.3384 37.3221 96.3384 35.4702C96.3384 33.7608 97.7572 32.1938 99.6017 32.1938Z" fill="#D7DEED"/>
<path d="M5.53337 61.1113C7.94538 61.1113 9.93174 63.1056 9.93174 65.5273C9.93174 67.9489 7.94538 69.9432 5.53337 69.9432C3.12137 69.9432 1.13501 67.9489 1.13501 65.5273C1.13501 63.1056 3.12137 61.1113 5.53337 61.1113Z" fill="#D7DEED"/>
<path d="M65.266 69.9429H45.4024H25.397L65.266 41.168L78.603 69.9429H65.266Z" fill="#FEBE76"/>
<path d="M71.9346 1.13965C78.0355 7.12255 81.4407 10.5414 87.3998 16.6667H71.9346V1.13965Z" fill="#BEC3C7"/>
<path d="M97.899 12.8207C98.7503 13.6754 98.7503 15.0999 97.899 15.9546C97.0478 16.8093 95.6289 16.8093 94.7776 15.9546C93.9263 15.0999 93.9263 13.6754 94.7776 12.8207C95.6289 11.966 97.0478 11.966 97.899 12.8207Z" fill="black"/>
<path d="M97.899 61.8232C98.7503 62.6779 98.7503 64.1024 97.899 64.9571C97.0478 65.8118 95.6289 65.8118 94.7776 64.9571C93.9263 64.1024 93.9263 62.6779 94.7776 61.8232C95.6289 60.9685 97.0478 60.9685 97.899 61.8232Z" fill="black"/>
<path d="M82.2919 88.4613C83.1432 89.316 83.1432 90.7405 82.2919 91.5952C81.4406 92.4499 80.0218 92.4499 79.1705 91.5952C78.3192 90.7405 78.3192 89.316 79.1705 88.4613C80.1636 87.6066 81.4406 87.6066 82.2919 88.4613Z" fill="black"/>
<path d="M74.0628 79.7721C73.9209 79.3448 73.7791 78.775 73.7791 78.3476C73.7791 77.9203 73.9209 77.4929 74.0628 76.9231C74.2047 76.4958 74.4885 76.0684 74.7722 75.6411C75.056 75.2137 75.4816 74.9288 76.0492 74.7864C76.4748 74.5015 77.0424 74.5015 77.6099 74.5015C78.3193 74.5015 78.8868 74.6439 79.4544 74.9288C80.0219 75.2137 80.4475 75.6411 80.5894 76.2109L79.1706 77.208C79.0287 77.0656 79.0287 76.7807 78.8868 76.6382C78.7449 76.4958 78.6031 76.3533 78.4612 76.3533C78.3193 76.2109 78.1774 76.2109 78.0355 76.2109C77.8936 76.2109 77.7518 76.2109 77.6099 76.2109C77.3261 76.2109 77.0424 76.2109 76.7586 76.3533C76.4748 76.4958 76.3329 76.6382 76.1911 76.9231C76.0492 77.208 75.9073 77.3505 75.7654 77.6354C75.6235 77.9203 75.6235 78.2052 75.6235 78.4901C75.6235 78.775 75.6235 79.0599 75.7654 79.3448C75.9073 79.6297 76.0492 79.9146 76.1911 80.057C76.3329 80.3419 76.6167 80.4844 76.7586 80.6268C77.0424 80.7693 77.3261 80.7693 77.6099 80.7693C77.7518 80.7693 77.8936 80.7693 78.0355 80.7693C78.1774 80.7693 78.3193 80.6268 78.4612 80.6268C78.6031 80.4844 78.7449 80.4844 78.8868 80.3419C79.0287 80.1995 79.1706 80.057 79.1706 79.9146L80.5894 80.7693C80.4475 81.0542 80.3057 81.3391 80.0219 81.4815C79.7381 81.7664 79.5962 81.9089 79.1706 82.0513C78.8868 82.1938 78.6031 82.3362 78.1774 82.3362C77.8936 82.4787 77.468 82.4787 77.1842 82.4787C76.6167 82.4787 76.0492 82.3362 75.6235 82.1938C75.1979 81.9089 74.7722 81.624 74.4885 81.3391C74.4885 80.6268 74.2047 80.1995 74.0628 79.7721Z" fill="black"/>
<path d="M62.854 33.7608L62.0027 31.0542L61.0095 33.7608H62.854ZM62.7121 28.9175L65.5497 36.6098H63.7053L63.1377 34.9004H60.7257L60.1582 36.6098H58.3137L61.1514 28.9175H62.7121V28.9175Z" fill="black"/>
<path d="M27.5252 76.7807C27.5252 76.4958 27.5252 76.3533 27.3834 76.2109C27.2415 76.0684 27.0996 76.0684 26.9577 76.0684H25.1132V77.6354H26.8158C26.9577 77.6354 27.2415 77.6354 27.3834 77.4929C27.3834 77.208 27.5252 77.0656 27.5252 76.7807ZM27.809 79.7721C27.809 79.4872 27.809 79.3448 27.6671 79.2023C27.5252 79.0599 27.3834 78.9174 27.0996 78.9174H25.1132V80.6268H26.9577C27.2415 80.6268 27.3834 80.4844 27.5252 80.3419C27.6671 80.3419 27.809 80.057 27.809 79.7721ZM29.2278 78.9174C29.5116 79.2023 29.6535 79.6297 29.6535 80.1995C29.6535 80.4844 29.6535 80.7693 29.5116 81.0542C29.3697 81.3391 29.2278 81.4815 28.9441 81.624C28.6603 81.7664 28.3765 81.9089 28.0928 82.0513C27.809 82.1938 27.3834 82.1938 27.0996 82.1938H23.4106V74.5015H27.6671C27.9509 74.5015 28.2347 74.5015 28.3765 74.6439C28.6603 74.7864 28.8022 74.9288 28.9441 75.0713C29.0859 75.2137 29.2278 75.4986 29.2278 75.6411C29.3697 75.926 29.3697 76.0684 29.3697 76.3533C29.3697 76.7807 29.2278 77.0656 29.086 77.3505C28.9441 77.6354 28.6603 77.9203 28.2347 78.0627C28.6603 78.3476 28.9441 78.6325 29.2278 78.9174Z" fill="black"/>
<path d="M9.36414 44.017C10.2154 44.8717 10.2154 46.2962 9.36414 47.1509C8.51284 48.0056 7.09402 48.0056 6.24272 47.1509C5.39142 46.2962 5.39142 44.8717 6.24272 44.017C7.09402 43.1623 8.51284 43.1623 9.36414 44.017Z" fill="black"/>
<path d="M87.3996 17.8063H71.9344C71.3668 17.8063 70.7993 17.3789 70.7993 16.6667V1.1396C70.7993 0.569801 71.225 0 71.9344 0C72.5019 0 73.0694 0.569801 73.0694 1.1396V15.5271H87.3996C87.9671 15.5271 88.5346 15.9544 88.5346 16.6667C88.5346 17.2365 88.109 17.8063 87.3996 17.8063Z" fill="black"/>
<path d="M82.8594 100H21.2823C18.1609 100 15.4651 97.4359 15.4651 94.1595V5.84046C15.4651 2.5641 18.019 0 21.2823 0H71.9344C72.2182 0 72.5019 0.14245 72.7857 0.2849L78.461 5.98291C81.5824 9.11681 84.4201 11.9658 88.3928 15.9544C88.5347 16.0969 88.6765 16.3818 88.6765 16.8091V94.302C88.5347 97.4359 85.9808 100 82.8594 100ZM21.2823 2.2792C19.2959 2.2792 17.7352 3.84615 17.7352 5.84046V94.302C17.7352 96.2963 19.2959 97.8633 21.2823 97.8633H82.8594C84.8457 97.8633 86.4064 96.2963 86.4064 94.302V17.094C82.7175 13.3903 79.8798 10.5413 76.9003 7.54986L71.6506 2.2792H21.2823V2.2792Z" fill="black"/>
<path d="M78.603 71.0824H25.397C24.9713 71.0824 24.5457 70.7975 24.4038 70.3701C24.2619 69.9428 24.4038 69.373 24.8294 69.0881L64.6985 40.1707C64.9822 40.0282 65.266 39.8858 65.6916 40.0282C65.9754 40.1707 66.2592 40.3131 66.4011 40.598L79.738 69.5154C79.8799 69.8003 79.8799 70.2277 79.5961 70.5126C79.3124 70.9399 79.0286 71.0824 78.603 71.0824ZM28.944 68.9456H76.9004L64.8404 42.8772L28.944 68.9456Z" fill="black"/>
<path d="M45.4024 71.0828C44.8349 71.0828 44.2673 70.6555 44.2673 69.9432V65.5273C44.2673 64.9575 44.693 64.3877 45.4024 64.3877C45.9699 64.3877 46.5375 64.815 46.5375 65.5273V69.9432C46.5375 70.6555 45.9699 71.0828 45.4024 71.0828Z" fill="black"/>
<path d="M65.2659 71.0828C64.6984 71.0828 64.1309 70.6554 64.1309 69.9432V61.1113C64.1309 60.5415 64.5565 59.9717 65.2659 59.9717C65.8334 59.9717 66.401 60.399 66.401 61.1113V69.9432C66.401 70.6554 65.9753 71.0828 65.2659 71.0828Z" fill="black"/>
<path d="M38.734 11.1112H25.397C24.8295 11.1112 24.262 10.6839 24.262 9.97163C24.262 9.40183 24.6876 8.83203 25.397 8.83203H38.734C39.3015 8.83203 39.8691 9.25938 39.8691 9.97163C39.8691 10.6839 39.3015 11.1112 38.734 11.1112Z" fill="black"/>
<path d="M38.734 17.8061H25.397C24.8295 17.8061 24.262 17.3787 24.262 16.6665C24.262 16.0967 24.6876 15.5269 25.397 15.5269H38.734C39.3015 15.5269 39.8691 15.9542 39.8691 16.6665C39.8691 17.2363 39.3015 17.8061 38.734 17.8061Z" fill="black"/>
<path d="M49.8008 24.5014H25.397C24.8295 24.5014 24.262 23.9316 24.262 23.3618C24.262 22.792 24.6876 22.2222 25.397 22.2222H49.8008C50.3684 22.2222 50.9359 22.6495 50.9359 23.3618C50.9359 23.9316 50.3684 24.5014 49.8008 24.5014Z" fill="black"/>
<path d="M49.8008 31.0541H25.397C24.8295 31.0541 24.262 30.4843 24.262 29.9145C24.262 29.3447 24.6876 28.7749 25.397 28.7749H49.8008C50.3684 28.7749 50.9359 29.2023 50.9359 29.9145C50.9359 30.6268 50.3684 31.0541 49.8008 31.0541Z" fill="black"/>
<path d="M74.2045 91.1679H16.6001C16.0326 91.1679 15.4651 90.7405 15.4651 90.0283C15.4651 89.4585 15.8907 88.8887 16.6001 88.8887H74.2045C74.7721 88.8887 75.3396 89.316 75.3396 90.0283C75.1977 90.5981 74.7721 91.1679 74.2045 91.1679Z" fill="black"/>
<path d="M5.53342 71.0828C2.41201 71.0828 0 68.6611 0 65.5272C0 62.5358 2.41201 59.9717 5.53342 59.9717C8.65484 59.9717 11.0668 62.5358 11.0668 65.5272C11.0668 68.6611 8.65484 71.0828 5.53342 71.0828ZM5.53342 62.2509C3.68895 62.2509 2.27012 63.6754 2.27012 65.5272C2.27012 67.3791 3.68895 68.8036 5.53342 68.8036C7.3779 68.8036 8.79672 67.3791 8.79672 65.5272C8.79672 63.6754 7.3779 62.2509 5.53342 62.2509Z" fill="black"/>
<path d="M99.6017 40.0287C97.1897 40.0287 95.2034 38.0344 95.2034 35.6127C95.2034 33.1911 97.1897 31.1968 99.6017 31.1968C102.014 31.1968 104 33.1911 104 35.6127C104 38.0344 102.014 40.0287 99.6017 40.0287ZM99.6017 33.3335C98.3248 33.3335 97.3316 34.3307 97.3316 35.6127C97.3316 36.8948 98.3248 37.8919 99.6017 37.8919C100.879 37.8919 101.872 36.8948 101.872 35.6127C101.872 34.3307 100.879 33.3335 99.6017 33.3335Z" fill="black"/>
</svg>
