<svg width="100" height="98" viewBox="0 0 100 98" fill="none" xmlns="http://www.w3.org/2000/svg">
<path d="M32.0513 2.13086C42.0228 2.13086 50.0001 10.1906 50.0001 19.9472V77.0726H1.13965V2.13086H32.0513V2.13086Z" fill="#ECF0F1"/>
<path d="M98.8604 77.0728H50V88.1019H98.8604V77.0728Z" fill="#808080"/>
<path d="M50 77.0728H1.13965V88.1019H50V77.0728Z" fill="#B3B3B3"/>
<path d="M25.4986 2.13086V21.9268L18.9459 17.5434L12.2507 21.9268V2.13086H25.4986Z" fill="#EF727A"/>
<path d="M98.8604 2.13086V77.0726H50V19.9472C50 10.0492 58.1197 2.13086 67.9487 2.13086H98.8604V2.13086Z" fill="#BEC3C7"/>
<path d="M50.0002 21.0785C49.4304 21.0785 48.8606 20.6543 48.8606 19.9473C48.8606 10.7564 41.3107 3.12079 31.909 3.12079H25.4987C24.9289 3.12079 24.3591 2.69659 24.3591 1.98959C24.3591 1.424 24.7865 0.858398 25.4987 0.858398H31.909C42.4503 0.858398 50.9973 9.34236 50.9973 19.8059C51.1398 20.5129 50.57 21.0785 50.0002 21.0785Z" fill="black"/>
<path d="M50 89.2332H1.1396C0.569801 89.2332 0 88.809 0 88.102V2.1312C0 1.4242 0.42735 1 1.1396 1H12.2507C12.8205 1 13.3903 1.4242 13.3903 2.1312C13.3903 2.69679 12.963 3.26239 12.2507 3.26239H2.2792V87.1123H50C50.5698 87.1123 51.1396 87.6779 51.1396 88.2435C51.1396 88.809 50.5698 89.2332 50 89.2332Z" fill="black"/>
<path d="M98.8604 89.2332H50C49.4302 89.2332 48.8604 88.809 48.8604 88.102V19.9475C48.8604 9.48397 57.4074 1 67.9487 1H98.8604C99.4302 1 99.9999 1.4242 99.9999 2.1312V88.102C99.9999 88.809 99.5726 89.2332 98.8604 89.2332ZM51.1396 86.9709H97.8632V3.26239H67.9487C58.6894 3.26239 50.9971 10.7566 50.9971 20.0889V86.9709H51.1396Z" fill="black"/>
<path d="M98.8604 78.2038H1.1396C0.569801 78.2038 0 77.7796 0 77.0726C0 76.507 0.42735 75.9414 1.1396 75.9414H98.8604C99.4302 75.9414 100 76.507 100 77.0726C100 77.7796 99.5727 78.2038 98.8604 78.2038Z" fill="black"/>
<path d="M25.4985 23.0583C25.2136 23.0583 25.0712 23.0583 24.9287 22.9169L18.9458 18.9577L12.8205 22.9169C12.5356 23.1997 12.1082 23.1997 11.6809 22.9169C11.2535 22.7755 11.1111 22.3513 11.1111 21.9271V2.1312C11.1111 1.4242 11.6809 1 12.2507 1H25.641C26.2108 1 26.7806 1.4242 26.7806 2.1312V21.9271C26.7806 22.3513 26.4957 22.7755 26.2108 22.9169C25.9259 23.0583 25.7834 23.0583 25.4985 23.0583ZM18.9458 16.4125C19.2307 16.4125 19.3732 16.4125 19.5156 16.5539L24.5014 19.8061V3.26239H13.3903V19.9475L18.376 16.6953C18.5185 16.5539 18.6609 16.4125 18.9458 16.4125Z" fill="black"/>
<path d="M41.168 18.6745H32.3361C31.7663 18.6745 31.1965 18.2503 31.1965 17.5433C31.1965 16.9777 31.6239 16.4121 32.3361 16.4121H41.168C41.7378 16.4121 42.3076 16.8363 42.3076 17.5433C42.1652 18.1089 41.7378 18.6745 41.168 18.6745Z" fill="black"/>
<path d="M25.4985 34.0871H9.97139C9.40159 34.0871 8.83179 33.6629 8.83179 32.9559C8.83179 32.3903 9.25914 31.8247 9.97139 31.8247H25.4985C26.0683 31.8247 26.6381 32.2489 26.6381 32.9559C26.6381 33.6629 26.2107 34.0871 25.4985 34.0871Z" fill="black"/>
<path d="M30.0569 42.8542H9.97139C9.40159 42.8542 8.83179 42.43 8.83179 41.723C8.83179 41.1574 9.25914 40.5918 9.97139 40.5918H29.9144C30.4842 40.5918 31.054 41.016 31.054 41.723C31.054 42.43 30.6267 42.8542 30.0569 42.8542Z" fill="black"/>
<path d="M41.168 51.7624H9.97139C9.40159 51.7624 8.83179 51.3382 8.83179 50.6312C8.83179 50.0656 9.25914 49.5 9.97139 49.5H41.0255C41.5953 49.5 42.1651 49.9242 42.1651 50.6312C42.1651 51.1968 41.7378 51.7624 41.168 51.7624Z" fill="black"/>
<path d="M41.168 60.529H9.97139C9.40159 60.529 8.83179 60.1048 8.83179 59.3978C8.83179 58.8322 9.25914 58.2666 9.97139 58.2666H41.0255C41.5953 58.2666 42.1651 58.6908 42.1651 59.3978C42.1651 60.1048 41.7378 60.529 41.168 60.529Z" fill="black"/>
<path d="M41.1681 69.4372H27.7778C27.208 69.4372 26.6382 69.013 26.6382 68.306C26.6382 67.7404 27.208 67.1748 27.7778 67.1748H41.1681C41.7379 67.1748 42.3077 67.599 42.3077 68.306C42.1652 68.8716 41.7379 69.4372 41.1681 69.4372Z" fill="black"/>
<path d="M90.0285 34.0871H63.3903C62.8205 34.0871 62.2507 33.6629 62.2507 32.9559C62.2507 32.3903 62.6781 31.8247 63.3903 31.8247H90.0285C90.5983 31.8247 91.1681 32.2489 91.1681 32.9559C91.1681 33.6629 90.5983 34.0871 90.0285 34.0871Z" fill="black"/>
<path d="M90.0284 42.8542H70.0854C69.5156 42.8542 68.9458 42.43 68.9458 41.723C68.9458 41.1574 69.3732 40.5918 70.0854 40.5918H90.0284C90.5982 40.5918 91.168 41.016 91.168 41.723C91.168 42.43 90.5982 42.8542 90.0284 42.8542Z" fill="black"/>
<path d="M90.0286 51.7624H58.832C58.2622 51.7624 57.6924 51.3382 57.6924 50.6312C57.6924 50.0656 58.1197 49.5 58.832 49.5H89.8861C90.4559 49.5 91.0257 49.9242 91.0257 50.6312C91.1682 51.1968 90.5984 51.7624 90.0286 51.7624Z" fill="black"/>
<path d="M90.0286 60.529H58.832C58.2622 60.529 57.6924 60.1048 57.6924 59.3978C57.6924 58.8322 58.1197 58.2666 58.832 58.2666H89.8861C90.4559 58.2666 91.0257 58.6908 91.0257 59.3978C91.1682 60.1048 90.5984 60.529 90.0286 60.529Z" fill="black"/>
<path d="M72.2223 69.4372H58.832C58.2622 69.4372 57.6924 69.013 57.6924 68.306C57.6924 67.7404 58.1197 67.1748 58.832 67.1748H72.2223C72.7921 67.1748 73.3619 67.599 73.3619 68.306C73.3619 68.8716 72.7921 69.4372 72.2223 69.4372Z" fill="black"/>
<path d="M98.8604 97.9997H1.1396C0.569801 97.9997 0 97.5755 0 96.8685C0 96.3029 0.42735 95.7373 1.1396 95.7373H98.8604C99.4302 95.7373 100 96.1615 100 96.8685C100 97.5755 99.5727 97.9997 98.8604 97.9997Z" fill="black"/>
</svg>
