<svg width="94" height="96" viewBox="0 0 94 96" fill="none" xmlns="http://www.w3.org/2000/svg">
<path d="M8.7609 76.373C10.9971 76.373 12.8387 78.2358 12.8387 80.4977C12.8387 82.7596 10.9971 84.6224 8.7609 84.6224C6.52469 84.6224 4.68311 82.7596 4.68311 80.4977C4.68311 78.2358 6.52469 76.373 8.7609 76.373Z" fill="#AFB9D2"/>
<path d="M81.635 5.72168C84.5289 5.72168 86.7651 7.98358 86.7651 10.9108C86.7651 13.8379 84.5289 16.0998 81.635 16.0998C78.7411 16.0998 76.5049 13.8379 76.5049 10.9108C76.5049 8.11664 78.7411 5.72168 81.635 5.72168Z" fill="#AFB9D2"/>
<path d="M67.297 20.0914L83.2136 36.1908C95.9731 49.097 95.9731 70.2524 83.2136 83.1586L71.6379 71.4499C74.7949 68.2566 76.505 63.9989 76.505 59.7412C76.505 55.4835 74.9265 51.2258 71.6379 48.0325L48.4866 24.4821L60.0622 12.7734L67.297 20.0914Z" fill="#AFB9D2"/>
<path d="M25.2036 48.0327L48.4865 71.4501C54.932 77.9697 65.3238 77.9697 71.7694 71.4501L83.345 83.1588C76.8995 89.6784 68.4808 92.8717 60.0622 92.8717C51.6435 92.8717 43.2248 89.6784 36.9108 83.1588L20.8627 67.0593L13.6279 59.7414L25.2036 48.0327Z" fill="#D7DEED"/>
<path d="M52.8751 5.46115L41.2468 17.2197L48.5008 24.5592L60.1291 12.8006L52.8751 5.46115Z" fill="#E64C42"/>
<path d="M17.9687 40.7144L25.2035 48.0323L13.6279 59.741L6.39307 52.423L17.9687 40.7144Z" fill="#E64C42"/>
<path d="M88.8698 24.4819C90.0537 24.4819 90.9745 25.4133 90.9745 26.6108C90.9745 27.8083 90.0537 28.7396 88.8698 28.7396C87.6859 28.7396 86.7651 27.8083 86.7651 26.6108C86.7651 25.4133 87.6859 24.4819 88.8698 24.4819Z" fill="black"/>
<path d="M39.5417 38.9849C40.7256 38.9849 41.6463 39.9162 41.6463 41.1137C41.6463 42.3112 40.7256 43.2426 39.5417 43.2426C38.3578 43.2426 37.437 42.3112 37.437 41.1137C37.437 39.9162 38.3578 38.9849 39.5417 38.9849Z" fill="black"/>
<path d="M12.8388 90.8755C14.0227 90.8755 14.9435 91.8069 14.9435 93.0043C14.9435 94.2018 14.0227 95.1332 12.8388 95.1332C11.6549 95.1332 10.7341 94.2018 10.7341 93.0043C10.8657 91.8069 11.7865 90.8755 12.8388 90.8755Z" fill="black"/>
<path d="M10.8656 1.59717C11.9179 1.59717 12.8387 2.52854 12.8387 3.72602C12.8387 4.9235 11.9179 5.85487 10.7341 5.85487C9.55019 5.85487 8.62939 4.9235 8.62939 3.72602C8.76094 2.52854 9.68173 1.59717 10.8656 1.59717Z" fill="black"/>
<path d="M6.65618 63.8657C7.84006 63.8657 8.76085 64.7971 8.76085 65.9946C8.76085 67.1921 7.84006 68.1234 6.65618 68.1234C5.47231 68.1234 4.55151 67.1921 4.55151 65.9946C4.68306 64.7971 5.60385 63.8657 6.65618 63.8657Z" fill="black"/>
<path d="M60.0622 94.069C50.9858 94.069 42.5671 90.4766 36.1216 84.0901L12.9702 60.5396L5.73542 53.2217C5.3408 52.8225 5.3408 52.1573 5.73542 51.7581L17.3111 40.0494C17.4426 39.9164 17.7057 39.7833 18.1003 39.7833C18.3634 39.7833 18.6265 39.9164 18.8896 40.0494L26.1244 47.3674L49.4073 70.9178C52.3012 73.845 56.1159 75.4416 60.3252 75.4416C64.403 75.4416 68.3493 73.845 71.2432 70.9178C74.1371 67.9906 75.7156 64.1321 75.7156 59.8744C75.7156 55.7497 74.1371 51.7581 71.2432 48.8309L47.6972 25.2805L40.4624 17.9626C40.3309 17.8295 40.1994 17.5634 40.1994 17.1643C40.1994 16.8982 40.3309 16.6321 40.4624 16.366L52.0381 4.65728C52.4327 4.25812 53.0904 4.25812 53.4851 4.65728L84.0027 35.5256C90.4483 42.0452 93.8684 50.5606 93.8684 59.7413C93.8684 68.922 90.3168 77.4374 84.0027 83.957C77.5572 90.4766 69.1385 94.069 60.0622 94.069ZM14.2856 58.943C14.2856 58.943 14.4172 58.943 14.2856 58.943L37.5685 82.4934C43.6194 88.6139 51.5119 91.9402 60.0622 91.9402C68.6124 91.9402 76.5049 88.6139 82.5558 82.4934C88.6067 76.373 91.8953 68.3898 91.8953 59.7413C91.8953 51.0929 88.6067 43.1097 82.5558 36.9892L52.8274 6.91918L42.6986 17.1643L72.4271 47.2343C75.7156 50.5606 77.5572 54.9514 77.5572 59.7413C77.5572 64.3982 75.7156 68.922 72.4271 72.2483C69.1385 75.5746 64.7977 77.4374 60.0622 77.4374C55.4582 77.4374 50.9858 75.5746 47.6972 72.2483L24.5459 48.6979L17.9688 42.0452L7.84009 52.2903L14.2856 58.943Z" fill="black"/>
<path d="M2.05226 49.0971C1.78918 49.0971 1.52609 48.9641 1.26301 48.831C0.868385 48.4319 0.868385 47.7666 1.26301 47.3674L12.8387 35.6587C13.2333 35.2596 13.891 35.2596 14.2856 35.6587C14.6803 36.0579 14.6803 36.7232 14.2856 37.1223L2.70997 48.831C2.57843 48.9641 2.31534 49.0971 2.05226 49.0971Z" fill="black"/>
<path d="M36.9109 13.8378C36.6478 13.8378 36.3847 13.7048 36.1217 13.5717C35.727 13.1726 35.727 12.5073 36.1217 12.1082L47.6973 0.399467C48.092 0.000307738 48.7497 0.000307738 49.1443 0.399467C49.5389 0.798627 49.5389 1.46389 49.1443 1.86305L37.5686 13.5717C37.4371 13.7048 37.174 13.8378 36.9109 13.8378Z" fill="black"/>
<path d="M13.628 60.8059C13.1019 60.8059 12.5757 60.4067 12.5757 59.7414C12.5757 59.4753 12.7072 59.2092 12.9703 58.9431L24.546 47.2344C24.9406 46.8353 25.5983 46.8353 25.9929 47.2344C26.3876 47.6336 26.3876 48.2989 25.9929 48.698L14.4173 60.4067C14.1542 60.6728 13.8911 60.8059 13.628 60.8059Z" fill="black"/>
<path d="M48.4866 25.5468C48.2235 25.5468 47.9604 25.4137 47.6973 25.2807C47.3027 24.8815 47.3027 24.2162 47.6973 23.8171L59.273 12.1084C59.4046 11.9753 59.6676 11.8423 60.0623 11.8423C60.5884 11.8423 61.1146 12.2414 61.1146 12.9067C61.1146 13.1728 60.9831 13.4389 60.8515 13.705L49.1443 25.2807C49.0128 25.4137 48.7497 25.5468 48.4866 25.5468Z" fill="black"/>
<path d="M20.8628 68.1234C20.5997 68.1234 20.3366 67.9904 20.0736 67.8573C19.6789 67.4582 19.6789 66.7929 20.0736 66.3937L24.4144 62.003C24.8091 61.6038 25.4668 61.6038 25.8614 62.003C26.256 62.4021 26.256 63.0674 25.8614 63.4666L21.6521 67.8573C21.389 67.9904 21.1259 68.1234 20.8628 68.1234Z" fill="black"/>
<path d="M62.9561 25.5463C62.693 25.5463 62.4299 25.4132 62.1668 25.2802C61.7722 24.881 61.7722 24.2157 62.1668 23.8166L66.5077 19.4258C66.9023 19.0267 67.56 19.0267 67.9547 19.4258C68.3493 19.825 68.3493 20.4903 67.9547 20.8894L63.7453 25.2802C63.4822 25.4132 63.2192 25.5463 62.9561 25.5463Z" fill="black"/>
<path d="M83.345 84.2231C83.0819 84.2231 82.8188 84.09 82.5557 83.957L70.9801 72.2483C70.5854 71.8491 70.5854 71.1839 70.9801 70.7847C71.3747 70.3856 72.0324 70.3856 72.427 70.7847L84.0027 82.4934C84.3973 82.8926 84.3973 83.5578 84.0027 83.957C83.8711 84.2231 83.6081 84.2231 83.345 84.2231Z" fill="black"/>
<path d="M88.8698 94.0688H19.1527C18.6265 94.0688 18.1003 93.6696 18.1003 93.0044C18.1003 92.4722 18.495 91.9399 19.1527 91.9399H88.8698C89.396 91.9399 89.9221 92.4722 89.9221 93.0044C89.7906 93.5366 89.396 94.0688 88.8698 94.0688Z" fill="black"/>
<path d="M6.65609 31.6671C6.12993 31.6671 5.60376 31.2679 5.60376 30.6027V14.1041C5.60376 13.838 5.7353 13.5718 5.99838 13.3057C6.26147 13.0396 6.52455 13.0396 6.91918 13.0396L20.0733 14.9024V7.85056C20.0733 7.31835 20.468 6.78613 21.1257 6.78613H29.2813C29.8074 6.78613 30.3336 7.18529 30.3336 7.85056C30.3336 8.38277 29.939 8.91498 29.2813 8.91498H22.0465V16.2329C22.0465 16.499 21.9149 16.7651 21.6519 17.0312C21.3888 17.1643 21.1257 17.2973 20.8626 17.2973L7.70843 15.4346V30.8688C7.70843 31.2679 7.3138 31.6671 6.65609 31.6671Z" fill="black"/>
<path d="M8.76074 85.6868C5.86682 85.6868 3.63062 83.2918 3.63062 80.4977C3.63062 77.5705 5.99837 75.3086 8.76074 75.3086C11.6547 75.3086 13.8909 77.5705 13.8909 80.4977C13.8909 83.4248 11.6547 85.6868 8.76074 85.6868ZM8.76074 77.4374C7.0507 77.4374 5.73528 78.901 5.73528 80.4977C5.73528 82.2274 7.0507 83.5579 8.76074 83.5579C10.4708 83.5579 11.7862 82.2274 11.7862 80.4977C11.7862 78.768 10.4708 77.4374 8.76074 77.4374Z" fill="black"/>
<path d="M81.6351 17.1642C78.215 17.1642 75.4526 14.3701 75.4526 10.9107C75.4526 7.45134 78.215 4.65723 81.6351 4.65723C85.0552 4.65723 87.8176 7.45134 87.8176 10.9107C87.8176 14.3701 85.0552 17.1642 81.6351 17.1642ZM81.6351 6.78608C79.3989 6.78608 77.5573 8.64882 77.5573 10.9107C77.5573 13.1726 79.3989 15.0354 81.6351 15.0354C83.8713 15.0354 85.7129 13.1726 85.7129 10.9107C85.7129 8.64882 83.8713 6.78608 81.6351 6.78608Z" fill="black"/>
</svg>
