<svg width="107" height="108" viewBox="0 0 107 108" fill="none" xmlns="http://www.w3.org/2000/svg">
<path d="M91.6282 22.2619C94.8742 22.2619 97.5057 19.6355 97.5057 16.3956C97.5057 13.1557 94.8742 10.5293 91.6282 10.5293C88.3822 10.5293 85.7507 13.1557 85.7507 16.3956C85.7507 19.6355 88.3822 22.2619 91.6282 22.2619Z" fill="#AFB9D2"/>
<path d="M5.8774 87.9946C8.43937 87.9946 10.5492 90.1005 10.5492 92.6576C10.5492 95.2147 8.43937 97.3205 5.8774 97.3205C3.31543 97.3205 1.20557 95.2147 1.20557 92.6576C1.20557 90.1005 3.31543 87.9946 5.8774 87.9946Z" fill="#AFB9D2"/>
<path d="M4.67176 20.0054C6.63092 20.0054 8.13796 21.5096 8.13796 23.465C8.13796 25.4204 6.63092 26.9246 4.67176 26.9246C2.71261 26.9246 1.20557 25.4204 1.20557 23.465C1.20557 21.5096 2.71261 20.0054 4.67176 20.0054Z" fill="#AFB9D2"/>
<path d="M41.1423 12.936H15.2212V22.2619H41.1423V12.936Z" fill="#AFB9D2"/>
<path d="M15.2212 22.2617V75.0584C15.2212 82.128 20.948 87.9943 28.1818 87.9943C30.593 87.9943 32.8536 87.2422 34.8127 86.1893C38.5803 83.933 40.9916 79.8717 40.9916 75.2088V71.7492V47.6823V22.2617H15.2212Z" fill="#D7DEED"/>
<path d="M102.328 71.5987C102.328 91.0026 86.5042 106.796 67.0634 106.796C52.7465 106.796 40.5394 98.373 34.9634 86.1892C38.731 83.9329 41.1422 79.8717 41.1422 75.2087V71.7491V47.6822C45.5127 43.0193 51.2394 39.4093 57.569 37.6042V1.20312H76.407V37.6042C91.3268 41.8159 102.328 55.3535 102.328 71.5987Z" fill="#D8F2F1"/>
<path d="M104.589 97.3203C105.945 97.3203 107 98.3732 107 99.727C107 101.081 105.945 102.134 104.589 102.134C103.232 102.134 102.177 101.081 102.177 99.727C102.328 98.3732 103.383 97.3203 104.589 97.3203Z" fill="black"/>
<path d="M92.8339 29.3315C94.1902 29.3315 95.2451 30.3845 95.2451 31.7382C95.2451 33.092 94.1902 34.1449 92.8339 34.1449C91.4775 34.1449 90.4226 33.092 90.4226 31.7382C90.5733 30.3845 91.6282 29.3315 92.8339 29.3315Z" fill="black"/>
<path d="M31.7985 1.20312C33.1548 1.20312 34.2097 2.25605 34.2097 3.60981C34.2097 4.96357 33.1548 6.0165 31.7985 6.0165C30.4421 6.0165 29.3872 4.96357 29.3872 3.60981C29.3872 2.25605 30.4421 1.20312 31.7985 1.20312Z" fill="black"/>
<path d="M31.7985 48.1338C33.1548 48.1338 34.2097 49.1867 34.2097 50.5405C34.2097 51.8942 33.1548 52.9472 31.7985 52.9472C30.4421 52.9472 29.3872 51.8942 29.3872 50.5405C29.3872 49.1867 30.4421 48.1338 31.7985 48.1338Z" fill="black"/>
<path d="M24.7155 36.4014C26.0718 36.4014 27.1267 37.4543 27.1267 38.8081C27.1267 40.1618 26.0718 41.2147 24.7155 41.2147C23.3591 41.2147 22.3042 40.1618 22.3042 38.8081C22.3042 37.4543 23.3591 36.4014 24.7155 36.4014Z" fill="black"/>
<path d="M24.7155 59.8662C26.0718 59.8662 27.1267 60.9191 27.1267 62.2729C27.1267 63.6267 26.0718 64.6796 24.7155 64.6796C23.3591 64.6796 22.3042 63.6267 22.3042 62.2729C22.3042 60.9191 23.3591 59.8662 24.7155 59.8662Z" fill="black"/>
<path d="M22.3041 95.064C23.6604 95.064 24.7154 96.1169 24.7154 97.4707C24.7154 98.8244 23.6604 99.8773 22.3041 99.8773C20.9478 99.8773 19.8928 98.8244 19.8928 97.4707C20.0435 96.1169 21.0985 95.064 22.3041 95.064Z" fill="black"/>
<path d="M8.28878 41.064C9.49441 41.064 10.5493 42.1169 10.5493 43.4706C10.5493 44.8244 9.49441 45.8773 8.13807 45.8773C6.78174 45.8773 5.72681 44.8244 5.72681 43.4706C5.87751 42.1169 6.93244 41.064 8.28878 41.064Z" fill="black"/>
<path d="M81.0789 2.40669H76.407C75.8042 2.40669 75.2014 1.95543 75.2014 1.20334C75.2014 0.601671 75.6535 0 76.407 0H81.0789C81.6817 0 82.2845 0.451253 82.2845 1.20334C82.2845 1.80501 81.8324 2.40669 81.0789 2.40669Z" fill="black"/>
<path d="M57.5691 2.40669H52.8973C52.2945 2.40669 51.6917 1.95543 51.6917 1.20334C51.6917 0.601671 52.1438 0 52.8973 0H57.5691C58.3226 0 58.7748 0.451253 58.7748 1.20334C58.7748 1.80501 58.3226 2.40669 57.5691 2.40669Z" fill="black"/>
<path d="M45.814 14.1391H41.1422C40.5393 14.1391 39.9365 13.6879 39.9365 12.9358C39.9365 12.3341 40.3886 11.7324 41.1422 11.7324H45.814C46.4168 11.7324 47.0196 12.3341 47.0196 12.9358C47.0196 13.5374 46.5675 14.1391 45.814 14.1391Z" fill="black"/>
<path d="M15.2212 14.1391H10.5494C9.94657 14.1391 9.34375 13.5374 9.34375 12.9358C9.34375 12.3341 9.79586 11.7324 10.5494 11.7324H15.2212C15.824 11.7324 16.4268 12.3341 16.4268 12.9358C16.4268 13.5374 15.9747 14.1391 15.2212 14.1391Z" fill="black"/>
<path d="M41.1424 23.4653H15.2213C14.6184 23.4653 14.0156 23.014 14.0156 22.2619C14.0156 21.6603 14.6184 21.0586 15.2213 21.0586H41.1424C41.7452 21.0586 42.348 21.6603 42.348 22.2619C42.348 23.014 41.7452 23.4653 41.1424 23.4653Z" fill="black"/>
<path d="M67.0635 108C52.7465 108 39.786 99.5766 33.9085 86.6407C33.9085 86.4902 33.7578 86.3398 33.7578 86.1894C33.7578 85.5877 34.2099 84.9861 34.9634 84.9861C35.4156 84.9861 35.8677 85.2869 36.0184 85.7382C41.5944 97.7716 53.8015 105.593 67.0635 105.593C85.9015 105.593 101.123 90.4011 101.123 71.5989C101.123 56.4067 90.8747 42.8691 76.1057 38.8078C75.6536 38.6574 75.2015 38.2061 75.2015 37.6045V2.40669H58.7747V37.6045C58.7747 38.2061 58.4733 38.6574 57.8705 38.8078C51.8423 40.4624 46.2663 43.7716 41.8958 48.4345C41.4437 48.8858 40.6902 48.8858 40.2381 48.4345C39.786 47.9833 39.786 47.2312 40.2381 46.7799C44.6085 41.9666 50.1846 38.507 56.3635 36.7019V1.20334C56.3635 0.601671 56.8156 0 57.5691 0H76.4071C77.0099 0 77.6127 0.451253 77.6127 1.20334V36.8524C92.8339 41.5153 103.534 55.6546 103.534 71.5989C103.383 91.6044 87.1071 108 67.0635 108Z" fill="black"/>
<path d="M28.1818 89.1976C20.3452 89.1976 14.0156 82.8801 14.0156 75.0583V12.9358C14.0156 12.3341 14.6184 11.7324 15.2213 11.7324H41.1424C41.7452 11.7324 42.348 12.3341 42.348 12.9358V75.0583C42.348 80.0221 39.786 84.5347 35.5663 87.0918C33.3058 88.4455 30.7438 89.1976 28.1818 89.1976ZM16.4269 14.1391V75.2087C16.4269 81.6767 21.7015 86.9413 28.1818 86.9413C30.2917 86.9413 32.4015 86.3397 34.21 85.2867C37.8269 83.1809 39.9367 79.4204 39.9367 75.2087V14.1391H16.4269Z" fill="black"/>
<path d="M61.0352 76.8637C59.3774 76.8637 57.569 76.7133 55.7605 76.262C50.938 75.0587 47.6225 72.8024 47.4718 72.652C46.869 72.3511 46.869 71.5991 47.1704 70.9974C47.4718 70.3957 48.2253 70.3957 48.8281 70.6965C48.8281 70.6965 52.1436 72.9528 56.3634 74.0057C62.0901 75.3595 66.9126 74.3066 70.831 70.847C81.531 61.3706 101.876 70.2453 102.63 70.6965C103.232 70.9974 103.534 71.5991 103.232 72.2007C102.931 72.8024 102.328 73.1032 101.725 72.8024C101.575 72.652 81.9831 64.0782 72.4887 72.652C69.3239 75.3595 65.4056 76.8637 61.0352 76.8637Z" fill="black"/>
<path d="M5.87747 98.5236C2.56197 98.5236 0 95.9665 0 92.6573C0 89.3481 2.56197 86.791 5.87747 86.791C9.19296 86.791 11.7549 89.3481 11.7549 92.6573C11.7549 95.9665 9.19296 98.5236 5.87747 98.5236ZM5.87747 89.1977C3.91831 89.1977 2.41127 90.7019 2.41127 92.6573C2.41127 94.6127 3.91831 96.1169 5.87747 96.1169C7.83662 96.1169 9.34366 94.4623 9.34366 92.6573C9.34366 90.7019 7.83662 89.1977 5.87747 89.1977Z" fill="black"/>
<path d="M4.67183 28.1282C2.10986 28.1282 0 26.0223 0 23.4652C0 20.9081 2.10986 18.8022 4.67183 18.8022C7.2338 18.8022 9.34366 20.9081 9.34366 23.4652C9.34366 26.0223 7.2338 28.1282 4.67183 28.1282ZM4.67183 21.0585C3.31549 21.0585 2.26056 22.1114 2.26056 23.4652C2.26056 24.819 3.31549 25.8719 4.67183 25.8719C6.02817 25.8719 7.0831 24.819 7.0831 23.4652C7.0831 22.1114 6.02817 21.0585 4.67183 21.0585Z" fill="black"/>
<path d="M91.6283 23.4654C87.71 23.4654 84.5452 20.3067 84.5452 16.3958C84.5452 12.4849 87.71 9.32617 91.6283 9.32617C95.5466 9.32617 98.7114 12.4849 98.7114 16.3958C98.7114 20.3067 95.5466 23.4654 91.6283 23.4654ZM91.6283 11.7329C89.0663 11.7329 86.9564 13.8387 86.9564 16.3958C86.9564 18.9529 89.0663 21.0588 91.6283 21.0588C94.1902 21.0588 96.3001 18.9529 96.3001 16.3958C96.3001 13.8387 94.3409 11.7329 91.6283 11.7329Z" fill="black"/>
<path d="M67.0635 98.5236C52.1437 98.5236 40.0874 86.4902 40.0874 71.5988C40.0874 70.9972 40.5395 70.3955 41.293 70.3955C41.8959 70.3955 42.4987 70.9972 42.4987 71.5988C42.4987 85.1365 53.6508 96.2674 67.2142 96.2674C75.6536 96.2674 83.3395 92.0557 87.8606 85.1365C88.162 84.5348 88.9156 84.3844 89.5184 84.8356C90.1212 85.1365 90.2719 85.8885 89.8198 86.4902C84.6959 94.0111 76.2564 98.5236 67.0635 98.5236Z" fill="black"/>
</svg>
