<svg width="402" height="400" viewBox="0 0 402 400" fill="none" xmlns="http://www.w3.org/2000/svg">
<path opacity="0.3" d="M400 0H0H9.9V11H0V11.7H9.9V22.8H0V23.5H9.9V34.6H0V35.3H9.9V46.4H0V47.1H9.9V58.2H0V58.9H9.9V69.9H0V70.6H9.9V81.7H0V82.4H9.9V93.5H0V94.2H9.9V105.3H0V106H9.9V117.1H0V117.8H9.9V128.9H0V129.6H9.9V140.6H0V141.3H9.9V152.4H0V153.1H9.9V164.1H0V164.8H9.9V175.9H0V176.6H9.9V187.7H0V188.4H9.9V199.5H0V200.2H9.9V211.3H0V212H9.9V223.1H0V223.8H9.9V234.8H0V235.5H9.9V246.5H0V247.2H9.9V258.2H0V258.9H9.9V270H0V270.7H9.9V281.8H0V282.5H9.9V293.6H0V294.3H9.9V305.3H0V306H9.9V317.1H0V317.8H9.9V328.8H0V329.5H9.9V340.6H0V341.3H9.9V352.4H0V353.1H9.9V364.2H0V364.9H9.9V376H0V376.7H9.9V387.7H0V388.4H9.9V400H10.6V388.9H20.5V400H21.2V388.9H31V400H31.7V388.9H41.6V400H42.3V388.9H52.2V400H52.9V388.9H62.8V400H63.5V388.9H73.4V400H74.1V388.9H84V400H84.7V388.9H94.6V400H95.3V388.9H105.2V400H105.9V388.9H115.8V400H116.5V388.9H126.4V400H127.1V388.9H137V400H137.7V388.9H147.6V400H148.3V388.9H158.2V400H158.9V388.9H168.8V400H169.5V388.9H179.4V400H180V388.9H189.9V400H190.6V388.9H200.5V400H201.2V388.9H211.1V400H211.8V388.9H221.7V400H222.4V388.9H232.3V400H233V388.9H242.9V400H243.6V388.9H253.5V400H254.2V388.9H264.1V400H264.8V388.9H274.7V400H275.4V388.9H285.3V400H286V388.9H295.9V400H296.6V388.9H306.5V400H307.1V388.9H317V400H317.7V388.9H327.6V400H328.2V388.9H338.1V400H338.8V388.9H348.7V400H349.4V388.9H359.3V400H360V388.9H369.9V400H370.6V388.9H380.5V400H381.2V388.9H391.1V400H391.8V388.9H401.7V388.2H391.8V377.2H401.7V376.5H391.8V365.4H401.7V364.7H391.8V353.6H401.7V352.9H391.8V341.8H401.7V341.1H391.8V330H401.7V329.3H391.8V318.3H401.7V317.6H391.8V306.5H401.7V305.8H391.8V294.8H401.7V294.1H391.8V283H401.7V282.3H391.8V271.2H401.7V270.5H391.8V259.4H401.7V258.7H391.8V247.7H401.7V247H391.8V236H401.7V235H391.8V224H401.7V223.3H391.8V212.2H401.7V211.5H391.8V200.4H401.7V199.7H391.8V188.6H401.7V187.9H391.8V176.8H401.7V176.1H391.8V165H401.7V164.3H391.8V153.3H401.7V152.6H391.8V141.5H401.7V140.8H391.8V129.8H401.7V129.1H391.8V118H401.7V117.3H391.8V106.2H401.7V105.5H391.8V94.3H401.7V93.6H391.8V82.5H401.7V81.8H391.8V70.8H401.7V70H391.8V58.9H401.7V58.2H391.8V47.1H401.7V46.4H391.8V35.4H401.7V34.7H391.8V23.6H401.7V22.9H391.8V11.8H401.7V11H391.8V0H400ZM389.5 377.2V388.2H379.6V377.2H389.5ZM378.9 377.2V388.2H369V377.2H378.9ZM368.4 377.2V388.2H358.5V377.2H368.4ZM357.8 377.2V388.2H347.9V377.2H357.8ZM347.3 377.2V388.2H337.4V377.2H347.3ZM336.7 377.2V388.2H326.8V377.2H336.7ZM326.2 377.2V388.2H316.3V377.2H326.2ZM315.7 377.2V388.2H305.8V377.2H315.7ZM305.1 377.2V388.2H295.2V377.2H305.1ZM294.6 377.2V388.2H284.7V377.2H294.6ZM284 377.2V388.2H274.1V377.2H284ZM273.5 377.2V388.2H263.6V377.2H273.5ZM262.9 377.2V388.2H253V377.2H262.9ZM252.4 377.2V388.2H242.5V377.2H252.4ZM241.8 377.2V388.2H232V377.2H241.8ZM231.3 377.2V388.2H221.4V377.2H231.3ZM220.8 377.2V388.2H210.9V377.2H220.8ZM210.2 377.2V388.2H200.3V377.2H210.2ZM199.7 377.2V388.2H189.8V377.2H199.7ZM189.1 377.2V388.2H179.2V377.2H189.1ZM178.6 377.2V388.2H168.7V377.2H178.6ZM168 377.2V388.2H158.1V377.2H168ZM157.5 377.2V388.2H147.6V377.2H157.5ZM147 377.2V388.2H137.1V377.2H147ZM136.4 377.2V388.2H126.5V377.2H136.4ZM125.9 377.2V388.2H116V377.2H125.9ZM115.3 377.2V388.2H105.4V377.2H115.3ZM104.8 377.2V388.2H94.9V377.2H104.8ZM94.2 377.2V388.2H84.3V377.2H94.2ZM83.7 377.2V388.2H73.8V377.2H83.7ZM73.2 377.2V388.2H63.3V377.2H73.2ZM62.6 377.2V388.2H52.7V377.2H62.6ZM52.1 377.2V388.2H42.2V377.2H52.1ZM41.5 377.2V388.2H31.6V377.2H41.5ZM31 377.2V388.2H21.1V377.2H31ZM20.4 377.2V388.2H10.5V377.2H20.4ZM389.5 365.4V376.5H379.6V365.4H389.5ZM378.9 365.4V376.5H369V365.4H378.9ZM368.4 365.4V376.5H358.5V365.4H368.4ZM357.8 365.4V376.5H347.9V365.4H357.8ZM347.3 365.4V376.5H337.4V365.4H347.3ZM336.7 365.4V376.5H326.8V365.4H336.7ZM326.2 365.4V376.5H316.3V365.4H326.2ZM315.7 365.4V376.5H305.8V365.4H315.7ZM305.1 365.4V376.5H295.2V365.4H305.1ZM294.6 365.4V376.5H284.7V365.4H294.6ZM284 365.4V376.5H274.1V365.4H284ZM273.5 365.4V376.5H263.6V365.4H273.5ZM262.9 365.4V376.5H253V365.4H262.9ZM252.4 365.4V376.5H242.5V365.4H252.4ZM241.8 365.4V376.5H232V365.4H241.8ZM231.3 365.4V376.5H221.4V365.4H231.3ZM220.8 365.4V376.5H210.9V365.4H220.8ZM210.2 365.4V376.5H200.3V365.4H210.2ZM199.7 365.4V376.5H189.8V365.4H199.7ZM189.1 365.4V376.5H179.2V365.4H189.1ZM178.6 365.4V376.5H168.7V365.4H178.6ZM168 365.4V376.5H158.1V365.4H168ZM157.5 365.4V376.5H147.6V365.4H157.5ZM147 365.4V376.5H137.1V365.4H147ZM136.4 365.4V376.5H126.5V365.4H136.4ZM125.9 365.4V376.5H116V365.4H125.9ZM115.3 365.4V376.5H105.4V365.4H115.3ZM104.8 365.4V376.5H94.9V365.4H104.8ZM94.2 365.4V376.5H84.3V365.4H94.2ZM83.7 365.4V376.5H73.8V365.4H83.7ZM73.2 365.4V376.5H63.3V365.4H73.2ZM62.6 365.4V376.5H52.7V365.4H62.6ZM52.1 365.4V376.5H42.2V365.4H52.1ZM41.5 365.4V376.5H31.6V365.4H41.5ZM31 365.4V376.5H21.1V365.4H31ZM20.4 365.4V376.5H10.5V365.4H20.4ZM389.5 353.6V364.7H379.6V353.6H389.5ZM378.9 353.6V364.7H369V353.6H378.9ZM368.4 353.6V364.7H358.5V353.6H368.4ZM357.8 353.6V364.7H347.9V353.6H357.8ZM347.3 353.6V364.7H337.4V353.6H347.3ZM336.7 353.6V364.7H326.8V353.6H336.7ZM326.2 353.6V364.7H316.3V353.6H326.2ZM315.7 353.6V364.7H305.8V353.6H315.7ZM305.1 353.6V364.7H295.2V353.6H305.1ZM294.6 353.6V364.7H284.7V353.6H294.6ZM284 353.6V364.7H274.1V353.6H284ZM273.5 353.6V364.7H263.6V353.6H273.5ZM262.9 353.6V364.7H253V353.6H262.9ZM252.4 353.6V364.7H242.5V353.6H252.4ZM241.8 353.6V364.7H232V353.6H241.8ZM231.3 353.6V364.7H221.4V353.6H231.3ZM220.8 353.6V364.7H210.9V353.6H220.8ZM210.2 353.6V364.7H200.3V353.6H210.2ZM199.7 353.6V364.7H189.8V353.6H199.7ZM189.1 353.6V364.7H179.2V353.6H189.1ZM178.6 353.6V364.7H168.7V353.6H178.6ZM168 353.6V364.7H158.1V353.6H168ZM157.5 353.6V364.7H147.6V353.6H157.5ZM147 353.6V364.7H137.1V353.6H147ZM136.4 353.6V364.7H126.5V353.6H136.4ZM125.9 353.6V364.7H116V353.6H125.9ZM115.3 353.6V364.7H105.4V353.6H115.3ZM104.8 353.6V364.7H94.9V353.6H104.8ZM94.2 353.6V364.7H84.3V353.6H94.2ZM83.7 353.6V364.7H73.8V353.6H83.7ZM73.2 353.6V364.7H63.3V353.6H73.2ZM62.6 353.6V364.7H52.7V353.6H62.6ZM52.1 353.6V364.7H42.2V353.6H52.1ZM41.5 353.6V364.7H31.6V353.6H41.5ZM31 353.6V364.7H21.1V353.6H31ZM20.4 353.6V364.7H10.5V353.6H20.4ZM389.5 341.8V352.9H379.6V341.8H389.5ZM378.9 341.8V352.9H369V341.8H378.9ZM368.4 341.8V352.9H358.5V341.8H368.4ZM357.8 341.8V352.9H347.9V341.8H357.8ZM347.3 341.8V352.9H337.4V341.8H347.3ZM336.7 341.8V352.9H326.8V341.8H336.7ZM326.2 341.8V352.9H316.3V341.8H326.2ZM315.7 341.8V352.9H305.8V341.8H315.7ZM305.1 341.8V352.9H295.2V341.8H305.1ZM294.6 341.8V352.9H284.7V341.8H294.6ZM284 341.8V352.9H274.1V341.8H284ZM273.5 341.8V352.9H263.6V341.8H273.5ZM262.9 341.8V352.9H253V341.8H262.9ZM252.4 341.8V352.9H242.5V341.8H252.4ZM241.8 341.8V352.9H232V341.8H241.8ZM231.3 341.8V352.9H221.4V341.8H231.3ZM220.8 341.8V352.9H210.9V341.8H220.8ZM210.2 341.8V352.9H200.3V341.8H210.2ZM199.7 341.8V352.9H189.8V341.8H199.7ZM189.1 341.8V352.9H179.2V341.8H189.1ZM178.6 341.8V352.9H168.7V341.8H178.6ZM168 341.8V352.9H158.1V341.8H168ZM157.5 341.8V352.9H147.6V341.8H157.5ZM147 341.8V352.9H137.1V341.8H147ZM136.4 341.8V352.9H126.5V341.8H136.4ZM125.9 341.8V352.9H116V341.8H125.9ZM115.3 341.8V352.9H105.4V341.8H115.3ZM104.8 341.8V352.9H94.9V341.8H104.8ZM94.2 341.8V352.9H84.3V341.8H94.2ZM83.7 341.8V352.9H73.8V341.8H83.7ZM73.2 341.8V352.9H63.3V341.8H73.2ZM62.6 341.8V352.9H52.7V341.8H62.6ZM52.1 341.8V352.9H42.2V341.8H52.1ZM41.5 341.8V352.9H31.6V341.8H41.5ZM31 341.8V352.9H21.1V341.8H31ZM20.4 341.8V352.9H10.5V341.8H20.4ZM389.5 330V341.1H379.6V330H389.5ZM378.9 330V341.1H369V330H378.9ZM368.4 330V341.1H358.5V330H368.4ZM357.8 330V341.1H347.9V330H357.8ZM347.3 330V341.1H337.4V330H347.3ZM336.7 330V341.1H326.8V330H336.7ZM326.2 330V341.1H316.3V330H326.2ZM315.7 330V341.1H305.8V330H315.7ZM305.1 330V341.1H295.2V330H305.1ZM294.6 330V341.1H284.7V330H294.6ZM284 330V341.1H274.1V330H284ZM273.5 330V341.1H263.6V330H273.5ZM262.9 330V341.1H253V330H262.9ZM252.4 330V341.1H242.5V330H252.4ZM241.8 330V341.1H232V330H241.8ZM231.3 330V341.1H221.4V330H231.3ZM220.8 330V341.1H210.9V330H220.8ZM210.2 330V341.1H200.3V330H210.2ZM199.7 330V341.1H189.8V330H199.7ZM189.1 330V341.1H179.2V330H189.1ZM178.6 330V341.1H168.7V330H178.6ZM168 330V341.1H158.1V330H168ZM157.5 330V341.1H147.6V330H157.5ZM147 330V341.1H137.1V330H147ZM136.4 330V341.1H126.5V330H136.4ZM125.9 330V341.1H116V330H125.9ZM115.3 330V341.1H105.4V330H115.3ZM104.8 330V341.1H94.9V330H104.8ZM94.2 330V341.1H84.3V330H94.2ZM83.7 330V341.1H73.8V330H83.7ZM73.2 330V341.1H63.3V330H73.2ZM62.6 330V341.1H52.7V330H62.6ZM52.1 330V341.1H42.2V330H52.1ZM41.5 330V341.1H31.6V330H41.5ZM31 330V341.1H21.1V330H31ZM20.4 330V341.1H10.5V330H20.4ZM389.5 318.2V329.2H379.6V318.2H389.5ZM378.9 318.2V329.2H369V318.2H378.9ZM368.4 318.2V329.2H358.5V318.2H368.4ZM357.8 318.2V329.2H347.9V318.2H357.8ZM347.3 318.2V329.2H337.4V318.2H347.3ZM336.7 318.2V329.2H326.8V318.2H336.7ZM326.2 318.2V329.2H316.3V318.2H326.2ZM315.7 318.2V329.2H305.8V318.2H315.7ZM305.1 318.2V329.2H295.2V318.2H305.1ZM294.6 318.2V329.2H284.7V318.2H294.6ZM284 318.2V329.2H274.1V318.2H284ZM273.5 318.2V329.2H263.6V318.2H273.5ZM262.9 318.2V329.2H253V318.2H262.9ZM252.4 318.2V329.2H242.5V318.2H252.4ZM241.8 318.2V329.2H232V318.2H241.8ZM231.3 318.2V329.2H221.4V318.2H231.3ZM220.8 318.2V329.2H210.9V318.2H220.8ZM210.2 318.2V329.2H200.3V318.2H210.2ZM199.7 318.2V329.2H189.8V318.2H199.7ZM189.1 318.2V329.2H179.2V318.2H189.1ZM178.6 318.2V329.2H168.7V318.2H178.6ZM168 318.2V329.2H158.1V318.2H168ZM157.5 318.2V329.2H147.6V318.2H157.5ZM147 318.2V329.2H137.1V318.2H147ZM136.4 318.2V329.2H126.5V318.2H136.4ZM125.9 318.2V329.2H116V318.2H125.9ZM115.3 318.2V329.2H105.4V318.2H115.3ZM104.8 318.2V329.2H94.9V318.2H104.8ZM94.2 318.2V329.2H84.3V318.2H94.2ZM83.7 318.2V329.2H73.8V318.2H83.7ZM73.2 318.2V329.2H63.3V318.2H73.2ZM62.6 318.2V329.2H52.7V318.2H62.6ZM52.1 318.2V329.2H42.2V318.2H52.1ZM41.5 318.2V329.2H31.6V318.2H41.5ZM31 318.2V329.2H21.1V318.2H31ZM20.4 318.2V329.2H10.5V318.2H20.4ZM389.5 306.4V317.5H379.6V306.4H389.5ZM378.9 306.4V317.5H369V306.4H378.9ZM368.4 306.4V317.5H358.5V306.4H368.4ZM357.8 306.4V317.5H347.9V306.4H357.8ZM347.3 306.4V317.5H337.4V306.4H347.3ZM336.7 306.4V317.5H326.8V306.4H336.7ZM326.2 306.4V317.5H316.3V306.4H326.2ZM315.7 306.4V317.5H305.8V306.4H315.7ZM305.1 306.4V317.5H295.2V306.4H305.1ZM294.6 306.4V317.5H284.7V306.4H294.6ZM284 306.4V317.5H274.1V306.4H284ZM273.5 306.4V317.5H263.6V306.4H273.5ZM262.9 306.4V317.5H253V306.4H262.9ZM252.4 306.4V317.5H242.5V306.4H252.4ZM241.8 306.4V317.5H232V306.4H241.8ZM231.3 306.4V317.5H221.4V306.4H231.3ZM220.8 306.4V317.5H210.9V306.4H220.8ZM210.2 306.4V317.5H200.3V306.4H210.2ZM199.7 306.4V317.5H189.8V306.4H199.7ZM189.1 306.4V317.5H179.2V306.4H189.1ZM178.6 306.4V317.5H168.7V306.4H178.6ZM168 306.4V317.5H158.1V306.4H168ZM157.5 306.4V317.5H147.6V306.4H157.5ZM147 306.4V317.5H137.1V306.4H147ZM136.4 306.4V317.5H126.5V306.4H136.4ZM125.9 306.4V317.5H116V306.4H125.9ZM115.3 306.4V317.5H105.4V306.4H115.3ZM104.8 306.4V317.5H94.9V306.4H104.8ZM94.2 306.4V317.5H84.3V306.4H94.2ZM83.7 306.4V317.5H73.8V306.4H83.7ZM73.2 306.4V317.5H63.3V306.4H73.2ZM62.6 306.4V317.5H52.7V306.4H62.6ZM52.1 306.4V317.5H42.2V306.4H52.1ZM41.5 306.4V317.5H31.6V306.4H41.5ZM31 306.4V317.5H21.1V306.4H31ZM20.4 306.4V317.5H10.5V306.4H20.4ZM389.5 294.7V305.7H379.6V294.7H389.5ZM378.9 294.7V305.7H369V294.7H378.9ZM368.4 294.7V305.7H358.5V294.7H368.4ZM357.8 294.7V305.7H347.9V294.7H357.8ZM347.3 294.7V305.7H337.4V294.7H347.3ZM336.7 294.7V305.7H326.8V294.7H336.7ZM326.2 294.7V305.7H316.3V294.7H326.2ZM315.7 294.7V305.7H305.8V294.7H315.7ZM305.1 294.7V305.7H295.2V294.7H305.1ZM294.6 294.7V305.7H284.7V294.7H294.6ZM284 294.7V305.7H274.1V294.7H284ZM273.5 294.7V305.7H263.6V294.7H273.5ZM262.9 294.7V305.7H253V294.7H262.9ZM252.4 294.7V305.7H242.5V294.7H252.4ZM241.8 294.7V305.7H232V294.7H241.8ZM231.3 294.7V305.7H221.4V294.7H231.3ZM220.8 294.7V305.7H210.9V294.7H220.8ZM210.2 294.7V305.7H200.3V294.7H210.2ZM199.7 294.7V305.7H189.8V294.7H199.7ZM189.1 294.7V305.7H179.2V294.7H189.1ZM178.6 294.7V305.7H168.7V294.7H178.6ZM168 294.7V305.7H158.1V294.7H168ZM157.5 294.7V305.7H147.6V294.7H157.5ZM147 294.7V305.7H137.1V294.7H147ZM136.4 294.7V305.7H126.5V294.7H136.4ZM125.9 294.7V305.7H116V294.7H125.9ZM115.3 294.7V305.7H105.4V294.7H115.3ZM104.8 294.7V305.7H94.9V294.7H104.8ZM94.2 294.7V305.7H84.3V294.7H94.2ZM83.7 294.7V305.7H73.8V294.7H83.7ZM73.2 294.7V305.7H63.3V294.7H73.2ZM62.6 294.7V305.7H52.7V294.7H62.6ZM52.1 294.7V305.7H42.2V294.7H52.1ZM41.5 294.7V305.7H31.6V294.7H41.5ZM31 294.7V305.7H21.1V294.7H31ZM20.4 294.7V305.7H10.5V294.7H20.4ZM389.5 282.9V294H379.6V282.9H389.5ZM378.9 282.9V294H369V282.9H378.9ZM368.4 282.9V294H358.5V282.9H368.4ZM357.8 282.9V294H347.9V282.9H357.8ZM347.3 282.9V294H337.4V282.9H347.3ZM336.7 282.9V294H326.8V282.9H336.7ZM326.2 282.9V294H316.3V282.9H326.2ZM315.7 282.9V294H305.8V282.9H315.7ZM305.1 282.9V294H295.2V282.9H305.1ZM294.6 282.9V294H284.7V282.9H294.6ZM284 282.9V294H274.1V282.9H284ZM273.5 282.9V294H263.6V282.9H273.5ZM262.9 282.9V294H253V282.9H262.9ZM252.4 282.9V294H242.5V282.9H252.4ZM241.8 282.9V294H232V282.9H241.8ZM231.3 282.9V294H221.4V282.9H231.3ZM220.8 282.9V294H210.9V282.9H220.8ZM210.2 282.9V294H200.3V282.9H210.2ZM199.7 282.9V294H189.8V282.9H199.7ZM189.1 282.9V294H179.2V282.9H189.1ZM178.6 282.9V294H168.7V282.9H178.6ZM168 282.9V294H158.1V282.9H168ZM157.5 282.9V294H147.6V282.9H157.5ZM147 282.9V294H137.1V282.9H147ZM136.4 282.9V294H126.5V282.9H136.4ZM125.9 282.9V294H116V282.9H125.9ZM115.3 282.9V294H105.4V282.9H115.3ZM104.8 282.9V294H94.9V282.9H104.8ZM94.2 282.9V294H84.3V282.9H94.2ZM83.7 282.9V294H73.8V282.9H83.7ZM73.2 282.9V294H63.3V282.9H73.2ZM62.6 282.9V294H52.7V282.9H62.6ZM52.1 282.9V294H42.2V282.9H52.1ZM41.5 282.9V294H31.6V282.9H41.5ZM31 282.9V294H21.1V282.9H31ZM20.4 282.9V294H10.5V282.9H20.4ZM389.5 271.1V282.2H379.6V271.1H389.5ZM378.9 271.1V282.2H369V271.1H378.9ZM368.4 271.1V282.2H358.5V271.1H368.4ZM357.8 271.1V282.2H347.9V271.1H357.8ZM347.3 271.1V282.2H337.4V271.1H347.3ZM336.7 271.1V282.2H326.8V271.1H336.7ZM326.2 271.1V282.2H316.3V271.1H326.2ZM315.7 271.1V282.2H305.8V271.1H315.7ZM305.1 271.1V282.2H295.2V271.1H305.1ZM294.6 271.1V282.2H284.7V271.1H294.6ZM284 271.1V282.2H274.1V271.1H284ZM273.5 271.1V282.2H263.6V271.1H273.5ZM262.9 271.1V282.2H253V271.1H262.9ZM252.4 271.1V282.2H242.5V271.1H252.4ZM241.8 271.1V282.2H232V271.1H241.8ZM231.3 271.1V282.2H221.4V271.1H231.3ZM220.8 271.1V282.2H210.9V271.1H220.8ZM210.2 271.1V282.2H200.3V271.1H210.2ZM199.7 271.1V282.2H189.8V271.1H199.7ZM189.1 271.1V282.2H179.2V271.1H189.1ZM178.6 271.1V282.2H168.7V271.1H178.6ZM168 271.1V282.2H158.1V271.1H168ZM157.5 271.1V282.2H147.6V271.1H157.5ZM147 271.1V282.2H137.1V271.1H147ZM136.4 271.1V282.2H126.5V271.1H136.4ZM125.9 271.1V282.2H116V271.1H125.9ZM115.3 271.1V282.2H105.4V271.1H115.3ZM104.8 271.1V282.2H94.9V271.1H104.8ZM94.2 271.1V282.2H84.3V271.1H94.2ZM83.7 271.1V282.2H73.8V271.1H83.7ZM73.2 271.1V282.2H63.3V271.1H73.2ZM62.6 271.1V282.2H52.7V271.1H62.6ZM52.1 271.1V282.2H42.2V271.1H52.1ZM41.5 271.1V282.2H31.6V271.1H41.5ZM31 271.1V282.2H21.1V271.1H31ZM20.4 271.1V282.2H10.5V271.1H20.4ZM389.5 259.3V270.4H379.6V259.3H389.5ZM378.9 259.3V270.4H369V259.3H378.9ZM368.4 259.3V270.4H358.5V259.3H368.4ZM357.8 259.3V270.4H347.9V259.3H357.8ZM347.3 259.3V270.4H337.4V259.3H347.3ZM336.7 259.3V270.4H326.8V259.3H336.7ZM326.2 259.3V270.4H316.3V259.3H326.2ZM315.7 259.3V270.4H305.8V259.3H315.7ZM305.1 259.3V270.4H295.2V259.3H305.1ZM294.6 259.3V270.4H284.7V259.3H294.6ZM284 259.3V270.4H274.1V259.3H284ZM273.5 259.3V270.4H263.6V259.3H273.5ZM262.9 259.3V270.4H253V259.3H262.9ZM252.4 259.3V270.4H242.5V259.3H252.4ZM241.8 259.3V270.4H232V259.3H241.8ZM231.3 259.3V270.4H221.4V259.3H231.3ZM220.8 259.3V270.4H210.9V259.3H220.8ZM210.2 259.3V270.4H200.3V259.3H210.2ZM199.7 259.3V270.4H189.8V259.3H199.7ZM189.1 259.3V270.4H179.2V259.3H189.1ZM178.6 259.3V270.4H168.7V259.3H178.6ZM168 259.3V270.4H158.1V259.3H168ZM157.5 259.3V270.4H147.6V259.3H157.5ZM147 259.3V270.4H137.1V259.3H147ZM136.4 259.3V270.4H126.5V259.3H136.4ZM125.9 259.3V270.4H116V259.3H125.9ZM115.3 259.3V270.4H105.4V259.3H115.3ZM104.8 259.3V270.4H94.9V259.3H104.8ZM94.2 259.3V270.4H84.3V259.3H94.2ZM83.7 259.3V270.4H73.8V259.3H83.7ZM73.2 259.3V270.4H63.3V259.3H73.2ZM62.6 259.3V270.4H52.7V259.3H62.6ZM52.1 259.3V270.4H42.2V259.3H52.1ZM41.5 259.3V270.4H31.6V259.3H41.5ZM31 259.3V270.4H21.1V259.3H31ZM20.4 259.3V270.4H10.5V259.3H20.4ZM389.5 247.5V258.5H379.6V247.5H389.5ZM378.9 247.5V258.5H369V247.5H378.9ZM368.4 247.5V258.5H358.5V247.5H368.4ZM357.8 247.5V258.5H347.9V247.5H357.8ZM347.3 247.5V258.5H337.4V247.5H347.3ZM336.7 247.5V258.5H326.8V247.5H336.7ZM326.2 247.5V258.5H316.3V247.5H326.2ZM315.7 247.5V258.5H305.8V247.5H315.7ZM305.1 247.5V258.5H295.2V247.5H305.1ZM294.6 247.5V258.5H284.7V247.5H294.6ZM284 247.5V258.5H274.1V247.5H284ZM273.5 247.5V258.5H263.6V247.5H273.5ZM262.9 247.5V258.5H253V247.5H262.9ZM252.4 247.5V258.5H242.5V247.5H252.4ZM241.8 247.5V258.5H232V247.5H241.8ZM231.3 247.5V258.5H221.4V247.5H231.3ZM220.8 247.5V258.5H210.9V247.5H220.8ZM210.2 247.5V258.5H200.3V247.5H210.2ZM199.7 247.5V258.5H189.8V247.5H199.7ZM189.1 247.5V258.5H179.2V247.5H189.1ZM178.6 247.5V258.5H168.7V247.5H178.6ZM168 247.5V258.5H158.1V247.5H168ZM157.5 247.5V258.5H147.6V247.5H157.5ZM147 247.5V258.5H137.1V247.5H147ZM136.4 247.5V258.5H126.5V247.5H136.4ZM125.9 247.5V258.5H116V247.5H125.9ZM115.3 247.5V258.5H105.4V247.5H115.3ZM104.8 247.5V258.5H94.9V247.5H104.8ZM94.2 247.5V258.5H84.3V247.5H94.2ZM83.7 247.5V258.5H73.8V247.5H83.7ZM73.2 247.5V258.5H63.3V247.5H73.2ZM62.6 247.5V258.5H52.7V247.5H62.6ZM52.1 247.5V258.5H42.2V247.5H52.1ZM41.5 247.5V258.5H31.6V247.5H41.5ZM31 247.5V258.5H21.1V247.5H31ZM20.4 247.5V258.5H10.5V247.5H20.4ZM389.5 235.7V246.7H379.6V235.7H389.5ZM378.9 235.7V246.7H369V235.7H378.9ZM368.4 235.7V246.7H358.5V235.7H368.4ZM357.8 235.7V246.7H347.9V235.7H357.8ZM347.3 235.7V246.7H337.4V235.7H347.3ZM336.7 235.7V246.7H326.8V235.7H336.7ZM326.2 235.7V246.7H316.3V235.7H326.2ZM315.7 235.7V246.7H305.8V235.7H315.7ZM305.1 235.7V246.7H295.2V235.7H305.1ZM294.6 235.7V246.7H284.7V235.7H294.6ZM284 235.7V246.7H274.1V235.7H284ZM273.5 235.7V246.7H263.6V235.7H273.5ZM262.9 235.7V246.7H253V235.7H262.9ZM252.4 235.7V246.7H242.5V235.7H252.4ZM241.8 235.7V246.7H232V235.7H241.8ZM231.3 235.7V246.7H221.4V235.7H231.3ZM220.8 235.7V246.7H210.9V235.7H220.8ZM210.2 235.7V246.7H200.3V235.7H210.2ZM199.7 235.7V246.7H189.8V235.7H199.7ZM189.1 235.7V246.7H179.2V235.7H189.1ZM178.6 235.7V246.7H168.7V235.7H178.6ZM168 235.7V246.7H158.1V235.7H168ZM157.5 235.7V246.7H147.6V235.7H157.5ZM147 235.7V246.7H137.1V235.7H147ZM136.4 235.7V246.7H126.5V235.7H136.4ZM125.9 235.7V246.7H116V235.7H125.9ZM115.3 235.7V246.7H105.4V235.7H115.3ZM104.8 235.7V246.7H94.9V235.7H104.8ZM94.2 235.7V246.7H84.3V235.7H94.2ZM83.7 235.7V246.7H73.8V235.7H83.7ZM73.2 235.7V246.7H63.3V235.7H73.2ZM62.6 235.7V246.7H52.7V235.7H62.6ZM52.1 235.7V246.7H42.2V235.7H52.1ZM41.5 235.7V246.7H31.6V235.7H41.5ZM31 235.7V246.7H21.1V235.7H31ZM20.4 235.7V246.7H10.5V235.7H20.4ZM389.5 223.9V234.9H379.6V223.9H389.5ZM378.9 223.9V234.9H369V223.9H378.9ZM368.4 223.9V234.9H358.5V223.9H368.4ZM357.8 223.9V234.9H347.9V223.9H357.8ZM347.3 223.9V234.9H337.4V223.9H347.3ZM336.7 223.9V234.9H326.8V223.9H336.7ZM326.2 223.9V234.9H316.3V223.9H326.2ZM315.7 223.9V234.9H305.8V223.9H315.7ZM305.1 223.9V234.9H295.2V223.9H305.1ZM294.6 223.9V234.9H284.7V223.9H294.6ZM284 223.9V234.9H274.1V223.9H284ZM273.5 223.9V234.9H263.6V223.9H273.5ZM262.9 223.9V234.9H253V223.9H262.9ZM252.4 223.9V234.9H242.5V223.9H252.4ZM241.8 223.9V234.9H232V223.9H241.8ZM231.3 223.9V234.9H221.4V223.9H231.3ZM220.8 223.9V234.9H210.9V223.9H220.8ZM210.2 223.9V234.9H200.3V223.9H210.2ZM199.7 223.9V234.9H189.8V223.9H199.7ZM189.1 223.9V234.9H179.2V223.9H189.1ZM178.6 223.9V234.9H168.7V223.9H178.6ZM168 223.9V234.9H158.1V223.9H168ZM157.5 223.9V234.9H147.6V223.9H157.5ZM147 223.9V234.9H137.1V223.9H147ZM136.4 223.9V234.9H126.5V223.9H136.4ZM125.9 223.9V234.9H116V223.9H125.9ZM115.3 223.9V234.9H105.4V223.9H115.3ZM104.8 223.9V234.9H94.9V223.9H104.8ZM94.2 223.9V234.9H84.3V223.9H94.2ZM83.7 223.9V234.9H73.8V223.9H83.7ZM73.2 223.9V234.9H63.3V223.9H73.2ZM62.6 223.9V234.9H52.7V223.9H62.6ZM52.1 223.9V234.9H42.2V223.9H52.1ZM41.5 223.9V234.9H31.6V223.9H41.5ZM31 223.9V234.9H21.1V223.9H31ZM20.4 223.9V234.9H10.5V223.9H20.4ZM389.5 212.2V223.3H379.6V212.2H389.5ZM378.9 212.2V223.3H369V212.2H378.9ZM368.4 212.2V223.3H358.5V212.2H368.4ZM357.8 212.2V223.3H347.9V212.2H357.8ZM347.3 212.2V223.3H337.4V212.2H347.3ZM336.7 212.2V223.3H326.8V212.2H336.7ZM326.2 212.2V223.3H316.3V212.2H326.2ZM315.7 212.2V223.3H305.8V212.2H315.7ZM305.1 212.2V223.3H295.2V212.2H305.1ZM294.6 212.2V223.3H284.7V212.2H294.6ZM284 212.2V223.3H274.1V212.2H284ZM273.5 212.2V223.3H263.6V212.2H273.5ZM262.9 212.2V223.3H253V212.2H262.9ZM252.4 212.2V223.3H242.5V212.2H252.4ZM241.8 212.2V223.3H232V212.2H241.8ZM231.3 212.2V223.3H221.4V212.2H231.3ZM220.8 212.2V223.3H210.9V212.2H220.8ZM210.2 212.2V223.3H200.3V212.2H210.2ZM199.7 212.2V223.3H189.8V212.2H199.7ZM189.1 212.2V223.3H179.2V212.2H189.1ZM178.6 212.2V223.3H168.7V212.2H178.6ZM168 223.2H158.1V212.1H168V223.2ZM157.5 212.2V223.3H147.6V212.2H157.5ZM147 212.2V223.3H137.1V212.2H147ZM136.4 212.2V223.3H126.5V212.2H136.4ZM125.9 212.2V223.3H116V212.2H125.9ZM115.3 212.2V223.3H105.4V212.2H115.3ZM104.8 212.2V223.3H94.9V212.2H104.8ZM94.2 212.2V223.3H84.3V212.2H94.2ZM83.7 212.2V223.3H73.8V212.2H83.7ZM73.2 212.2V223.3H63.3V212.2H73.2ZM62.6 212.2V223.3H52.7V212.2H62.6ZM52.1 212.2V223.3H42.2V212.2H52.1ZM41.5 212.2V223.3H31.6V212.2H41.5ZM31 212.2V223.3H21.1V212.2H31ZM20.4 212.2V223.3H10.5V212.2H20.4ZM389.5 200.4V211.5H379.6V200.4H389.5ZM378.9 200.4V211.5H369V200.4H378.9ZM368.4 200.4V211.5H358.5V200.4H368.4ZM357.8 200.4V211.5H347.9V200.4H357.8ZM347.3 200.4V211.5H337.4V200.4H347.3ZM336.7 200.4V211.5H326.8V200.4H336.7ZM326.2 200.4V211.5H316.3V200.4H326.2ZM315.7 200.4V211.5H305.8V200.4H315.7ZM305.1 200.4V211.5H295.2V200.4H305.1ZM294.6 200.4V211.5H284.7V200.4H294.6ZM284 200.4V211.5H274.1V200.4H284ZM273.5 200.4V211.5H263.6V200.4H273.5ZM262.9 200.4V211.5H253V200.4H262.9ZM252.4 200.4V211.5H242.5V200.4H252.4ZM241.8 200.4V211.5H232V200.4H241.8ZM231.3 200.4V211.5H221.4V200.4H231.3ZM220.8 200.4V211.5H210.9V200.4H220.8ZM210.2 200.4V211.5H200.3V200.4H210.2ZM199.7 200.4V211.5H189.8V200.4H199.7ZM189.1 200.4V211.5H179.2V200.4H189.1ZM178.6 200.4V211.5H168.7V200.4H178.6ZM168 200.4V211.5H158.1V200.4H168ZM157.5 200.4V211.5H147.6V200.4H157.5ZM147 200.4V211.5H137.1V200.4H147ZM136.4 200.4V211.5H126.5V200.4H136.4ZM125.9 200.4V211.5H116V200.4H125.9ZM115.3 200.4V211.5H105.4V200.4H115.3ZM104.8 200.4V211.5H94.9V200.4H104.8ZM94.2 200.4V211.5H84.3V200.4H94.2ZM83.7 200.4V211.5H73.8V200.4H83.7ZM73.2 200.4V211.5H63.3V200.4H73.2ZM62.6 200.4V211.5H52.7V200.4H62.6ZM52.1 200.4V211.5H42.2V200.4H52.1ZM41.5 200.4V211.5H31.6V200.4H41.5ZM31 200.4V211.5H21.1V200.4H31ZM20.4 200.4V211.5H10.5V200.4H20.4ZM389.5 188.6V199.7H379.6V188.6H389.5ZM378.9 188.6V199.7H369V188.6H378.9ZM368.4 188.6V199.7H358.5V188.6H368.4ZM357.8 188.6V199.7H347.9V188.6H357.8ZM347.3 188.6V199.7H337.4V188.6H347.3ZM336.7 188.6V199.7H326.8V188.6H336.7ZM326.2 188.6V199.7H316.3V188.6H326.2ZM315.7 188.6V199.7H305.8V188.6H315.7ZM305.1 188.6V199.7H295.2V188.6H305.1ZM294.6 188.6V199.7H284.7V188.6H294.6ZM284 188.6V199.7H274.1V188.6H284ZM273.5 188.6V199.7H263.6V188.6H273.5ZM262.9 188.6V199.7H253V188.6H262.9ZM252.4 188.6V199.7H242.5V188.6H252.4ZM241.8 188.6V199.7H232V188.6H241.8ZM231.3 188.6V199.7H221.4V188.6H231.3ZM220.8 188.6V199.7H210.9V188.6H220.8ZM210.2 188.6V199.7H200.3V188.6H210.2ZM199.7 188.6V199.7H189.8V188.6H199.7ZM189.1 188.6V199.7H179.2V188.6H189.1ZM178.6 188.6V199.7H168.7V188.6H178.6ZM168 188.6V199.7H158.1V188.6H168ZM157.5 188.6V199.7H147.6V188.6H157.5ZM147 188.6V199.7H137.1V188.6H147ZM136.4 188.6V199.7H126.5V188.6H136.4ZM125.9 188.6V199.7H116V188.6H125.9ZM115.3 188.6V199.7H105.4V188.6H115.3ZM104.8 188.6V199.7H94.9V188.6H104.8ZM94.2 188.6V199.7H84.3V188.6H94.2ZM83.7 188.6V199.7H73.8V188.6H83.7ZM73.2 188.6V199.7H63.3V188.6H73.2ZM62.6 188.6V199.7H52.7V188.6H62.6ZM52.1 188.6V199.7H42.2V188.6H52.1ZM41.5 188.6V199.7H31.6V188.6H41.5ZM31 188.6V199.7H21.1V188.6H31ZM20.4 188.6V199.7H10.5V188.6H20.4ZM389.5 176.8V187.9H379.6V176.8H389.5ZM378.9 176.8V187.9H369V176.8H378.9ZM368.4 176.8V187.9H358.5V176.8H368.4ZM357.8 176.8V187.9H347.9V176.8H357.8ZM347.3 176.8V187.9H337.4V176.8H347.3ZM336.7 176.8V187.9H326.8V176.8H336.7ZM326.2 176.8V187.9H316.3V176.8H326.2ZM315.7 176.8V187.9H305.8V176.8H315.7ZM305.1 176.8V187.9H295.2V176.8H305.1ZM294.6 176.8V187.9H284.7V176.8H294.6ZM284 176.8V187.9H274.1V176.8H284ZM273.5 176.8V187.9H263.6V176.8H273.5ZM262.9 176.8V187.9H253V176.8H262.9ZM252.4 176.8V187.9H242.5V176.8H252.4ZM241.8 176.8V187.9H232V176.8H241.8ZM231.3 176.8V187.9H221.4V176.8H231.3ZM220.8 176.8V187.9H210.9V176.8H220.8ZM210.2 176.8V187.9H200.3V176.8H210.2ZM199.7 176.8V187.9H189.8V176.8H199.7ZM189.1 176.8V187.9H179.2V176.8H189.1ZM178.6 176.8V187.9H168.7V176.8H178.6ZM168 176.8V187.9H158.1V176.8H168ZM157.5 176.8V187.9H147.6V176.8H157.5ZM147 176.8V187.9H137.1V176.8H147ZM136.4 176.8V187.9H126.5V176.8H136.4ZM125.9 176.8V187.9H116V176.8H125.9ZM115.3 176.8V187.9H105.4V176.8H115.3ZM104.8 176.8V187.9H94.9V176.8H104.8ZM94.2 176.8V187.9H84.3V176.8H94.2ZM83.7 176.8V187.9H73.8V176.8H83.7ZM73.2 176.8V187.9H63.3V176.8H73.2ZM62.6 176.8V187.9H52.7V176.8H62.6ZM52.1 176.8V187.9H42.2V176.8H52.1ZM41.5 176.8V187.9H31.6V176.8H41.5ZM31 176.8V187.9H21.1V176.8H31ZM20.4 176.8V187.9H10.5V176.8H20.4ZM389.5 165V176.1H379.6V165H389.5ZM378.9 165V176.1H369V165H378.9ZM368.4 165V176.1H358.5V165H368.4ZM357.8 165V176.1H347.9V165H357.8ZM347.3 165V176.1H337.4V165H347.3ZM336.7 165V176.1H326.8V165H336.7ZM326.2 165V176.1H316.3V165H326.2ZM315.7 165V176.1H305.8V165H315.7ZM305.1 165V176.1H295.2V165H305.1ZM294.6 165V176.1H284.7V165H294.6ZM284 165V176.1H274.1V165H284ZM273.5 165V176.1H263.6V165H273.5ZM262.9 165V176.1H253V165H262.9ZM252.4 165V176.1H242.5V165H252.4ZM241.8 165V176.1H232V165H241.8ZM231.3 165V176.1H221.4V165H231.3ZM220.8 165V176.1H210.9V165H220.8ZM210.2 165V176.1H200.3V165H210.2ZM199.7 165V176.1H189.8V165H199.7ZM189.1 165V176.1H179.2V165H189.1ZM178.6 165V176.1H168.7V165H178.6ZM168 165V176.1H158.1V165H168ZM157.5 165V176.1H147.6V165H157.5ZM147 165V176.1H137.1V165H147ZM136.4 165V176.1H126.5V165H136.4ZM125.9 165V176.1H116V165H125.9ZM115.3 165V176.1H105.4V165H115.3ZM104.8 165V176.1H94.9V165H104.8ZM94.2 165V176.1H84.3V165H94.2ZM83.7 165V176.1H73.8V165H83.7ZM73.2 165V176.1H63.3V165H73.2ZM62.6 165V176.1H52.7V165H62.6ZM52.1 165V176.1H42.2V165H52.1ZM41.5 165V176.1H31.6V165H41.5ZM31 165V176.1H21.1V165H31ZM20.4 165V176.1H10.5V165H20.4ZM389.5 153.2V164.2H379.6V153.2H389.5ZM378.9 153.2V164.2H369V153.2H378.9ZM368.4 153.2V164.2H358.5V153.2H368.4ZM357.8 153.2V164.2H347.9V153.2H357.8ZM347.3 153.2V164.2H337.4V153.2H347.3ZM336.7 153.2V164.2H326.8V153.2H336.7ZM326.2 153.2V164.2H316.3V153.2H326.2ZM315.7 153.2V164.2H305.8V153.2H315.7ZM305.1 153.2V164.2H295.2V153.2H305.1ZM294.6 153.2V164.2H284.7V153.2H294.6ZM284 153.2V164.2H274.1V153.2H284ZM273.5 153.2V164.2H263.6V153.2H273.5ZM262.9 153.2V164.2H253V153.2H262.9ZM252.4 153.2V164.2H242.5V153.2H252.4ZM241.8 153.2V164.2H232V153.2H241.8ZM231.3 153.2V164.2H221.4V153.2H231.3ZM220.8 153.2V164.2H210.9V153.2H220.8ZM210.2 153.2V164.2H200.3V153.2H210.2ZM199.7 153.2V164.2H189.8V153.2H199.7ZM189.1 153.2V164.2H179.2V153.2H189.1ZM178.6 153.2V164.2H168.7V153.2H178.6ZM168 153.2V164.2H158.1V153.2H168ZM157.5 153.2V164.2H147.6V153.2H157.5ZM147 153.2V164.2H137.1V153.2H147ZM136.4 153.2V164.2H126.5V153.2H136.4ZM125.9 153.2V164.2H116V153.2H125.9ZM115.3 153.2V164.2H105.4V153.2H115.3ZM104.8 153.2V164.2H94.9V153.2H104.8ZM94.2 153.2V164.2H84.3V153.2H94.2ZM83.7 153.2V164.2H73.8V153.2H83.7ZM73.2 153.2V164.2H63.3V153.2H73.2ZM62.6 153.2V164.2H52.7V153.2H62.6ZM52.1 153.2V164.2H42.2V153.2H52.1ZM41.5 153.2V164.2H31.6V153.2H41.5ZM31 153.2V164.2H21.1V153.2H31ZM20.4 153.2V164.2H10.5V153.2H20.4ZM389.5 141.4V152.5H379.6V141.4H389.5ZM378.9 141.4V152.5H369V141.4H378.9ZM368.4 141.4V152.5H358.5V141.4H368.4ZM357.8 141.4V152.5H347.9V141.4H357.8ZM347.3 141.4V152.5H337.4V141.4H347.3ZM336.7 141.4V152.5H326.8V141.4H336.7ZM326.2 141.4V152.5H316.3V141.4H326.2ZM315.7 141.4V152.5H305.8V141.4H315.7ZM305.1 141.4V152.5H295.2V141.4H305.1ZM294.6 141.4V152.5H284.7V141.4H294.6ZM284 141.4V152.5H274.1V141.4H284ZM273.5 141.4V152.5H263.6V141.4H273.5ZM262.9 141.4V152.5H253V141.4H262.9ZM252.4 141.4V152.5H242.5V141.4H252.4ZM241.8 141.4V152.5H232V141.4H241.8ZM231.3 141.4V152.5H221.4V141.4H231.3ZM220.8 141.4V152.5H210.9V141.4H220.8ZM210.2 141.4V152.5H200.3V141.4H210.2ZM199.7 141.4V152.5H189.8V141.4H199.7ZM189.1 141.4V152.5H179.2V141.4H189.1ZM178.6 141.4V152.5H168.7V141.4H178.6ZM168 141.4V152.5H158.1V141.4H168ZM157.5 141.4V152.5H147.6V141.4H157.5ZM147 141.4V152.5H137.1V141.4H147ZM136.4 141.4V152.5H126.5V141.4H136.4ZM125.9 141.4V152.5H116V141.4H125.9ZM115.3 141.4V152.5H105.4V141.4H115.3ZM104.8 141.4V152.5H94.9V141.4H104.8ZM94.2 141.4V152.5H84.3V141.4H94.2ZM83.7 141.4V152.5H73.8V141.4H83.7ZM73.2 141.4V152.5H63.3V141.4H73.2ZM62.6 141.4V152.5H52.7V141.4H62.6ZM52.1 141.4V152.5H42.2V141.4H52.1ZM41.5 141.4V152.5H31.6V141.4H41.5ZM31 141.4V152.5H21.1V141.4H31ZM20.4 141.4V152.5H10.5V141.4H20.4ZM389.5 129.7V140.7H379.6V129.7H389.5ZM378.9 129.7V140.7H369V129.7H378.9ZM368.4 129.7V140.7H358.5V129.7H368.4ZM357.8 129.7V140.7H347.9V129.7H357.8ZM347.3 129.7V140.7H337.4V129.7H347.3ZM336.7 129.7V140.7H326.8V129.7H336.7ZM326.2 129.7V140.7H316.3V129.7H326.2ZM315.7 129.7V140.7H305.8V129.7H315.7ZM305.1 129.7V140.7H295.2V129.7H305.1ZM294.6 129.7V140.7H284.7V129.7H294.6ZM284 129.7V140.7H274.1V129.7H284ZM273.5 129.7V140.7H263.6V129.7H273.5ZM262.9 129.7V140.7H253V129.7H262.9ZM252.4 129.7V140.7H242.5V129.7H252.4ZM241.8 129.7V140.7H232V129.7H241.8ZM231.3 129.7V140.7H221.4V129.7H231.3ZM220.8 129.7V140.7H210.9V129.7H220.8ZM210.2 129.7V140.7H200.3V129.7H210.2ZM199.7 129.7V140.7H189.8V129.7H199.7ZM189.1 129.7V140.7H179.2V129.7H189.1ZM178.6 129.7V140.7H168.7V129.7H178.6ZM168 129.7V140.7H158.1V129.7H168ZM157.5 129.7V140.7H147.6V129.7H157.5ZM147 129.7V140.7H137.1V129.7H147ZM136.4 129.7V140.7H126.5V129.7H136.4ZM125.9 129.7V140.7H116V129.7H125.9ZM115.3 129.7V140.7H105.4V129.7H115.3ZM104.8 129.7V140.7H94.9V129.7H104.8ZM94.2 129.7V140.7H84.3V129.7H94.2ZM83.7 129.7V140.7H73.8V129.7H83.7ZM73.2 129.7V140.7H63.3V129.7H73.2ZM62.6 129.7V140.7H52.7V129.7H62.6ZM52.1 129.7V140.7H42.2V129.7H52.1ZM41.5 129.7V140.7H31.6V129.7H41.5ZM31 129.7V140.7H21.1V129.7H31ZM20.4 129.7V140.7H10.5V129.7H20.4ZM389.5 117.9V129H379.6V117.9H389.5ZM378.9 117.9V129H369V117.9H378.9ZM368.4 117.9V129H358.5V117.9H368.4ZM357.8 117.9V129H347.9V117.9H357.8ZM347.3 117.9V129H337.4V117.9H347.3ZM336.7 117.9V129H326.8V117.9H336.7ZM326.2 117.9V129H316.3V117.9H326.2ZM315.7 117.9V129H305.8V117.9H315.7ZM305.1 117.9V129H295.2V117.9H305.1ZM294.6 117.9V129H284.7V117.9H294.6ZM284 117.9V129H274.1V117.9H284ZM273.5 117.9V129H263.6V117.9H273.5ZM262.9 117.9V129H253V117.9H262.9ZM252.4 117.9V129H242.5V117.9H252.4ZM241.8 117.9V129H232V117.9H241.8ZM231.3 117.9V129H221.4V117.9H231.3ZM220.8 117.9V129H210.9V117.9H220.8ZM210.2 117.9V129H200.3V117.9H210.2ZM199.7 117.9V129H189.8V117.9H199.7ZM189.1 117.9V129H179.2V117.9H189.1ZM178.6 117.9V129H168.7V117.9H178.6ZM168 117.9V129H158.1V117.9H168ZM157.5 117.9V129H147.6V117.9H157.5ZM147 117.9V129H137.1V117.9H147ZM136.4 117.9V129H126.5V117.9H136.4ZM125.9 117.9V129H116V117.9H125.9ZM115.3 117.9V129H105.4V117.9H115.3ZM104.8 117.9V129H94.9V117.9H104.8ZM94.2 117.9V129H84.3V117.9H94.2ZM83.7 117.9V129H73.8V117.9H83.7ZM73.2 117.9V129H63.3V117.9H73.2ZM62.6 117.9V129H52.7V117.9H62.6ZM52.1 117.9V129H42.2V117.9H52.1ZM41.5 117.9V129H31.6V117.9H41.5ZM31 117.9V129H21.1V117.9H31ZM20.4 117.9V129H10.5V117.9H20.4ZM389.5 106.1V117.2H379.6V106.1H389.5ZM378.9 106.1V117.2H369V106.1H378.9ZM368.4 106.1V117.2H358.5V106.1H368.4ZM357.8 106.1V117.2H347.9V106.1H357.8ZM347.3 106.1V117.2H337.4V106.1H347.3ZM336.7 106.1V117.2H326.8V106.1H336.7ZM326.2 106.1V117.2H316.3V106.1H326.2ZM315.7 106.1V117.2H305.8V106.1H315.7ZM305.1 106.1V117.2H295.2V106.1H305.1ZM294.6 106.1V117.2H284.7V106.1H294.6ZM284 106.1V117.2H274.1V106.1H284ZM273.5 106.1V117.2H263.6V106.1H273.5ZM262.9 106.1V117.2H253V106.1H262.9ZM252.4 106.1V117.2H242.5V106.1H252.4ZM241.8 106.1V117.2H232V106.1H241.8ZM231.3 106.1V117.2H221.4V106.1H231.3ZM220.8 106.1V117.2H210.9V106.1H220.8ZM210.2 106.1V117.2H200.3V106.1H210.2ZM199.7 106.1V117.2H189.8V106.1H199.7ZM189.1 106.1V117.2H179.2V106.1H189.1ZM178.6 106.1V117.2H168.7V106.1H178.6ZM168 106.1V117.2H158.1V106.1H168ZM157.5 106.1V117.2H147.6V106.1H157.5ZM147 106.1V117.2H137.1V106.1H147ZM136.4 106.1V117.2H126.5V106.1H136.4ZM125.9 106.1V117.2H116V106.1H125.9ZM115.3 106.1V117.2H105.4V106.1H115.3ZM104.8 106.1V117.2H94.9V106.1H104.8ZM94.2 106.1V117.2H84.3V106.1H94.2ZM83.7 106.1V117.2H73.8V106.1H83.7ZM73.2 106.1V117.2H63.3V106.1H73.2ZM62.6 106.1V117.2H52.7V106.1H62.6ZM52.1 106.1V117.2H42.2V106.1H52.1ZM41.5 106.1V117.2H31.6V106.1H41.5ZM31 106.1V117.2H21.1V106.1H31ZM20.4 106.1V117.2H10.5V106.1H20.4ZM389.5 94.3V105.4H379.6V94.3H389.5ZM378.9 94.3V105.4H369V94.3H378.9ZM368.4 94.3V105.4H358.5V94.3H368.4ZM357.8 94.3V105.4H347.9V94.3H357.8ZM347.3 94.3V105.4H337.4V94.3H347.3ZM336.7 94.3V105.4H326.8V94.3H336.7ZM326.2 94.3V105.4H316.3V94.3H326.2ZM315.7 94.3V105.4H305.8V94.3H315.7ZM305.1 94.3V105.4H295.2V94.3H305.1ZM294.6 94.3V105.4H284.7V94.3H294.6ZM284 94.3V105.4H274.1V94.3H284ZM273.5 94.3V105.4H263.6V94.3H273.5ZM262.9 94.3V105.4H253V94.3H262.9ZM252.4 94.3V105.4H242.5V94.3H252.4ZM241.8 94.3V105.4H232V94.3H241.8ZM231.3 94.3V105.4H221.4V94.3H231.3ZM220.8 94.3V105.4H210.9V94.3H220.8ZM210.2 94.3V105.4H200.3V94.3H210.2ZM199.7 94.3V105.4H189.8V94.3H199.7ZM189.1 94.3V105.4H179.2V94.3H189.1ZM178.6 94.3V105.4H168.7V94.3H178.6ZM168 94.3V105.4H158.1V94.3H168ZM157.5 94.3V105.4H147.6V94.3H157.5ZM147 94.3V105.4H137.1V94.3H147ZM136.4 94.3V105.4H126.5V94.3H136.4ZM125.9 94.3V105.4H116V94.3H125.9ZM115.3 94.3V105.4H105.4V94.3H115.3ZM104.8 94.3V105.4H94.9V94.3H104.8ZM94.2 94.3V105.4H84.3V94.3H94.2ZM83.7 94.3V105.4H73.8V94.3H83.7ZM73.2 94.3V105.4H63.3V94.3H73.2ZM62.6 94.3V105.4H52.7V94.3H62.6ZM52.1 94.3V105.4H42.2V94.3H52.1ZM41.5 94.3V105.4H31.6V94.3H41.5ZM31 94.3V105.4H21.1V94.3H31ZM20.4 94.3V105.4H10.5V94.3H20.4ZM389.5 82.5V93.6H379.6V82.5H389.5ZM378.9 82.5V93.6H369V82.5H378.9ZM368.4 82.5V93.6H358.5V82.5H368.4ZM357.8 82.5V93.6H347.9V82.5H357.8ZM347.3 82.5V93.6H337.4V82.5H347.3ZM336.7 82.5V93.6H326.8V82.5H336.7ZM326.2 82.5V93.6H316.3V82.5H326.2ZM315.7 82.5V93.6H305.8V82.5H315.7ZM305.1 82.5V93.6H295.2V82.5H305.1ZM294.6 82.5V93.6H284.7V82.5H294.6ZM284 82.5V93.6H274.1V82.5H284ZM273.5 82.5V93.6H263.6V82.5H273.5ZM262.9 82.5V93.6H253V82.5H262.9ZM252.4 82.5V93.6H242.5V82.5H252.4ZM241.8 82.5V93.6H232V82.5H241.8ZM231.3 82.5V93.6H221.4V82.5H231.3ZM220.8 82.5V93.6H210.9V82.5H220.8ZM210.2 82.5V93.6H200.3V82.5H210.2ZM199.7 82.5V93.6H189.8V82.5H199.7ZM189.1 82.5V93.6H179.2V82.5H189.1ZM178.6 82.5V93.6H168.7V82.5H178.6ZM168 82.5V93.6H158.1V82.5H168ZM157.5 82.5V93.6H147.6V82.5H157.5ZM147 82.5V93.6H137.1V82.5H147ZM136.4 82.5V93.6H126.5V82.5H136.4ZM125.9 82.5V93.6H116V82.5H125.9ZM115.3 82.5V93.6H105.4V82.5H115.3ZM104.8 82.5V93.6H94.9V82.5H104.8ZM94.2 82.5V93.6H84.3V82.5H94.2ZM83.7 82.5V93.6H73.8V82.5H83.7ZM73.2 82.5V93.6H63.3V82.5H73.2ZM62.6 82.5V93.6H52.7V82.5H62.6ZM52.1 82.5V93.6H42.2V82.5H52.1ZM41.5 82.5V93.6H31.6V82.5H41.5ZM31 82.5V93.6H21.1V82.5H31ZM20.4 82.5V93.6H10.5V82.5H20.4ZM389.5 70.7V81.7H379.6V70.7H389.5ZM378.9 70.7V81.7H369V70.7H378.9ZM368.4 70.7V81.7H358.5V70.7H368.4ZM357.8 70.7V81.7H347.9V70.7H357.8ZM347.3 70.7V81.7H337.4V70.7H347.3ZM336.7 70.7V81.7H326.8V70.7H336.7ZM326.2 70.7V81.7H316.3V70.7H326.2ZM315.7 70.7V81.7H305.8V70.7H315.7ZM305.1 70.7V81.7H295.2V70.7H305.1ZM294.6 70.7V81.7H284.7V70.7H294.6ZM284 70.7V81.7H274.1V70.7H284ZM273.5 70.7V81.7H263.6V70.7H273.5ZM262.9 70.7V81.7H253V70.7H262.9ZM252.4 70.7V81.7H242.5V70.7H252.4ZM241.8 70.7V81.7H232V70.7H241.8ZM231.3 70.7V81.7H221.4V70.7H231.3ZM220.8 70.7V81.7H210.9V70.7H220.8ZM210.2 70.7V81.7H200.3V70.7H210.2ZM199.7 70.7V81.7H189.8V70.7H199.7ZM189.1 70.7V81.7H179.2V70.7H189.1ZM178.6 70.7V81.7H168.7V70.7H178.6ZM168 70.7V81.7H158.1V70.7H168ZM157.5 70.7V81.7H147.6V70.7H157.5ZM147 70.7V81.7H137.1V70.7H147ZM136.4 70.7V81.8H126.5V70.7H136.4ZM125.9 70.7V81.8H116V70.7H125.9ZM115.3 70.7V81.8H105.4V70.7H115.3ZM104.8 70.7V81.8H94.9V70.7H104.8ZM94.2 70.7V81.8H84.3V70.7H94.2ZM83.7 70.7V81.8H73.8V70.7H83.7ZM73.2 70.7V81.8H63.3V70.7H73.2ZM62.6 70.7V81.8H52.7V70.7H62.6ZM52.1 70.7V81.8H42.2V70.7H52.1ZM41.5 70.7V81.8H31.6V70.7H41.5ZM31 70.7V81.8H21.1V70.7H31ZM20.4 70.7V81.8H10.5V70.7H20.4ZM389.5 58.9V70H379.6V58.9H389.5ZM378.9 58.9V70H369V58.9H378.9ZM368.4 58.9V70H358.5V58.9H368.4ZM357.8 58.9V70H347.9V58.9H357.8ZM347.3 58.9V70H337.4V58.9H347.3ZM336.7 58.9V70H326.8V58.9H336.7ZM326.2 58.9V70H316.3V58.9H326.2ZM315.7 58.9V70H305.8V58.9H315.7ZM305.1 58.9V70H295.2V58.9H305.1ZM294.6 58.9V70H284.7V58.9H294.6ZM284 58.9V70H274.1V58.9H284ZM273.5 58.9V70H263.6V58.9H273.5ZM262.9 58.9V70H253V58.9H262.9ZM252.4 58.9V70H242.5V58.9H252.4ZM241.8 58.9V70H232V58.9H241.8ZM231.3 58.9V70H221.4V58.9H231.3ZM220.8 58.9V70H210.9V58.9H220.8ZM210.2 58.9V70H200.3V58.9H210.2ZM199.7 58.9V70H189.8V58.9H199.7ZM189.1 58.9V70H179.2V58.9H189.1ZM178.6 58.9V70H168.7V58.9H178.6ZM168 58.9V70H158.1V58.9H168ZM157.5 58.9V70H147.6V58.9H157.5ZM147 58.9V70H137.1V59H147V58.9ZM136.4 58.9V69.9H126.5V58.9H136.4V58.9ZM125.9 58.9V69.9H116V58.9H125.9V58.9ZM115.3 58.9V69.9H105.4V58.9H115.3V58.9ZM104.8 58.9V69.9H94.9V58.9H104.8V58.9ZM94.2 58.9V69.9H84.3V58.9H94.2V58.9ZM83.7 58.9V69.9H73.8V58.9H83.7V58.9ZM73.2 58.9V69.9H63.3V58.9H73.2V58.9ZM62.6 58.9V69.9H52.7V58.9H62.6V58.9ZM52.1 58.9V69.9H42.2V58.9H52.1V58.9ZM41.5 58.9V69.9H31.6V58.9H41.5V58.9ZM31 58.9V69.9H21.1V58.9H31V58.9ZM20.4 58.9V69.9H10.5V58.9H20.4V58.9ZM389.5 47.1V58.2H379.6V47.1H389.5ZM378.9 47.1V58.2H369V47.1H378.9ZM368.4 47.1V58.2H358.5V47.1H368.4ZM357.8 47.1V58.2H347.9V47.1H357.8ZM347.3 47.1V58.2H337.4V47.1H347.3ZM336.7 47.1V58.2H326.8V47.1H336.7ZM326.2 47.1V58.2H316.3V47.1H326.2ZM315.7 47.1V58.2H305.8V47.1H315.7ZM305.1 47.1V58.2H295.2V47.1H305.1ZM294.6 47.1V58.2H284.7V47.1H294.6ZM284 47.1V58.2H274.1V47.1H284ZM273.5 47.1V58.2H263.6V47.1H273.5ZM262.9 47.1V58.2H253V47.1H262.9ZM252.4 47.1V58.2H242.5V47.1H252.4ZM241.8 47.1V58.2H232V47.1H241.8ZM231.3 47.1V58.2H221.4V47.1H231.3ZM220.8 47.1V58.2H210.9V47.1H220.8ZM210.2 47.1V58.2H200.3V47.1H210.2ZM199.7 47.1V58.2H189.8V47.1H199.7ZM189.1 47.1V58.2H179.2V47.1H189.1ZM178.6 47.1V58.2H168.7V47.1H178.6ZM168 47.1V58.2H158.1V47.1H168ZM157.5 47.1V58.2H147.6V47.1H157.5ZM147 47.1V58.2H137.1V47.1H147ZM136.4 47.1V58.2H126.5V47.1H136.4ZM125.9 47.1V58.2H116V47.1H125.9ZM115.3 47.1V58.2H105.4V47.1H115.3ZM104.8 47.1V58.2H94.9V47.1H104.8ZM94.2 47.1V58.2H84.3V47.1H94.2ZM83.7 47.1V58.2H73.8V47.1H83.7ZM73.2 47.1V58.2H63.3V47.1H73.2ZM62.6 47.1V58.2H52.7V47.1H62.6ZM52.1 47.1V58.2H42.2V47.1H52.1ZM41.5 47.1V58.2H31.6V47.1H41.5ZM31 47.1V58.2H21.1V47.1H31ZM20.4 47.1V58.2H10.5V47.1H20.4ZM389.5 35.4V46.5H379.6V35.4H389.5ZM378.9 35.4V46.5H369V35.4H378.9ZM368.4 35.4V46.5H358.5V35.4H368.4ZM357.8 35.4V46.5H347.9V35.4H357.8ZM347.3 35.4V46.5H337.4V35.4H347.3ZM336.7 35.4V46.5H326.8V35.4H336.7ZM326.2 35.4V46.5H316.3V35.4H326.2ZM315.7 35.4V46.5H305.8V35.4H315.7ZM305.1 35.4V46.5H295.2V35.4H305.1ZM294.6 35.4V46.5H284.7V35.4H294.6ZM284 35.4V46.5H274.1V35.4H284ZM273.5 35.4V46.5H263.6V35.4H273.5ZM262.9 35.4V46.5H253V35.4H262.9ZM252.4 35.4V46.5H242.5V35.4H252.4ZM241.8 35.4V46.5H232V35.4H241.8ZM231.3 35.4V46.5H221.4V35.4H231.3ZM220.8 35.4V46.5H210.9V35.4H220.8ZM210.2 35.4V46.5H200.3V35.4H210.2ZM199.7 35.4V46.5H189.8V35.4H199.7ZM189.1 35.4V46.5H179.2V35.4H189.1ZM178.6 35.4V46.5H168.7V35.4H178.6ZM168 35.4V46.5H158.1V35.4H168ZM157.5 35.4V46.5H147.6V35.4H157.5ZM147 35.4V46.5H137.1V35.4H147ZM136.4 35.4V46.5H126.5V35.4H136.4ZM125.9 35.4V46.5H116V35.4H125.9ZM115.3 35.4V46.5H105.4V35.4H115.3ZM104.8 35.4V46.5H94.9V35.4H104.8ZM94.2 35.4V46.5H84.3V35.4H94.2ZM83.7 35.4V46.5H73.8V35.4H83.7ZM73.2 35.4V46.5H63.3V35.4H73.2ZM62.6 35.4V46.5H52.7V35.4H62.6ZM52.1 35.4V46.5H42.2V35.4H52.1ZM41.5 35.4V46.5H31.6V35.4H41.5ZM31 35.4V46.5H21.1V35.4H31ZM20.4 35.4V46.5H10.5V35.4H20.4ZM389.5 23.6V34.7H379.6V23.6H389.5ZM378.9 23.6V34.7H369V23.6H378.9ZM368.4 23.6V34.7H358.5V23.6H368.4ZM357.8 23.6V34.7H347.9V23.6H357.8ZM347.3 23.6V34.7H337.4V23.6H347.3ZM336.7 23.6V34.7H326.8V23.6H336.7ZM326.2 23.6V34.7H316.3V23.6H326.2ZM315.7 23.6V34.7H305.8V23.6H315.7ZM305.1 23.6V34.7H295.2V23.6H305.1ZM294.6 23.6V34.7H284.7V23.6H294.6ZM284 23.6V34.7H274.1V23.6H284ZM273.5 23.6V34.7H263.6V23.6H273.5ZM262.9 23.6V34.7H253V23.6H262.9ZM252.4 23.6V34.7H242.5V23.6H252.4ZM241.8 23.6V34.7H232V23.6H241.8ZM231.3 23.6V34.7H221.4V23.6H231.3ZM220.8 23.6V34.7H210.9V23.6H220.8ZM210.2 23.6V34.7H200.3V23.6H210.2ZM199.7 23.6V34.7H189.8V23.6H199.7ZM189.1 23.6V34.7H179.2V23.6H189.1ZM178.6 23.6V34.7H168.7V23.6H178.6ZM168 23.6V34.7H158.1V23.6H168ZM157.5 23.6V34.7H147.6V23.6H157.5ZM147 23.6V34.7H137.1V23.6H147ZM136.4 23.6V34.7H126.5V23.6H136.4ZM125.9 23.6V34.7H116V23.6H125.9ZM115.3 23.6V34.7H105.4V23.6H115.3ZM104.8 23.6V34.7H94.9V23.6H104.8ZM94.2 23.6V34.7H84.3V23.6H94.2ZM83.7 23.6V34.7H73.8V23.6H83.7ZM73.2 23.6V34.7H63.3V23.6H73.2ZM62.6 23.6V34.7H52.7V23.6H62.6ZM52.1 23.6V34.7H42.2V23.6H52.1ZM41.5 23.6V34.7H31.6V23.6H41.5ZM31 23.6V34.7H21.1V23.6H31ZM20.4 23.6V34.7H10.5V23.6H20.4ZM389.5 11.8V22.9H379.6V11.8H389.5ZM378.9 11.8V22.9H369V11.8H378.9ZM368.4 11.8V22.9H358.5V11.8H368.4ZM357.8 11.8V22.9H347.9V11.8H357.8ZM347.3 11.8V22.9H337.4V11.8H347.3ZM336.7 11.8V22.9H326.8V11.8H336.7ZM326.2 11.8V22.9H316.3V11.8H326.2ZM315.7 11.8V22.9H305.8V11.8H315.7ZM305.1 11.8V22.9H295.2V11.8H305.1ZM294.6 11.8V22.9H284.7V11.8H294.6ZM284 11.8V22.9H274.1V11.8H284ZM273.5 11.8V22.9H263.6V11.8H273.5ZM262.9 11.8V22.9H253V11.8H262.9ZM252.4 11.8V22.9H242.5V11.8H252.4ZM241.8 11.8V22.9H232V11.8H241.8ZM231.3 11.8V22.9H221.4V11.8H231.3ZM220.8 11.8V22.9H210.9V11.8H220.8ZM210.2 11.8V22.9H200.3V11.8H210.2ZM199.7 11.8V22.9H189.8V11.8H199.7ZM189.1 11.8V22.9H179.2V11.8H189.1ZM178.6 11.8V22.9H168.7V11.8H178.6ZM168 11.8V22.9H158.1V11.8H168ZM157.5 11.8V22.9H147.6V11.8H157.5ZM147 11.8V22.9H137.1V11.8H147ZM136.4 11.8V22.9H126.5V11.8H136.4ZM125.9 11.8V22.9H116V11.8H125.9ZM115.3 11.8V22.9H105.4V11.8H115.3ZM104.8 11.8V22.9H94.9V11.8H104.8ZM94.2 11.8V22.9H84.3V11.8H94.2ZM83.7 11.8V22.9H73.8V11.8H83.7ZM73.2 11.8V22.9H63.3V11.8H73.2ZM62.6 11.8V22.9H52.7V11.8H62.6ZM52.1 11.8V22.9H42.2V11.8H52.1ZM41.5 11.8V22.9H31.6V11.8H41.5ZM31 11.8V22.9H21.1V11.8H31ZM20.4 11.8V22.9H10.5V11.8H20.4ZM10.5 11V0H20.4V11H10.5ZM21.1 11V0H31V11H21.1ZM31.6 11V0H41.5V11H31.6ZM42.2 11V0H52.1V11H42.2ZM52.7 11V0H62.6V11H52.7ZM63.3 11V0H73.2V11H63.3ZM73.8 11V0H83.7V11H73.8ZM84.3 11V0H94.2V11H84.3ZM94.9 11V0H104.8V11H94.9ZM105.4 11V0H115.3V11H105.4ZM116 11V0H125.9V11H116ZM126.5 11V0H136.4V11H126.5ZM137.1 11V0H147V11H137.1ZM147.6 11V0H157.5V11H147.6ZM158.2 11V0H168.1V11H158.2ZM168.7 11V0H178.6V11H168.7ZM179.2 11V0H189.1V11H179.2ZM189.8 11V0H199.7V11H189.8ZM200.3 11V0H210.2V11H200.3ZM210.9 11V0H220.8V11H210.9ZM221.4 11V0H231.3V11H221.4ZM232 11V0H241.9V11H232ZM242.5 11V0H252.4V11H242.5ZM253 11V0H262.9V11H253ZM263.6 11V0H273.5V11H263.6ZM274.1 11V0H284V11H274.1ZM284.7 11V0H294.6V11H284.7ZM295.2 11V0H305.1V11H295.2ZM305.8 11V0H315.7V11H305.8ZM316.3 11V0H326.2V11H316.3ZM326.8 11V0H336.7V11H326.8ZM337.4 11V0H347.3V11H337.4ZM347.9 11V0H357.8V11H347.9ZM358.5 11V0H368.4V11H358.5ZM369 11V0H378.9V11H369ZM389.5 11H379.6V0H389.5V11Z" fill="#9ACACB"/>
</svg>
